<?xml version="1.0" encoding="UTF-8"?>
<!DOCTYPE svg PUBLIC "-//W3C//DTD SVG 1.1//EN" "http://www.w3.org/Graphics/SVG/1.1/DTD/svg11.dtd">
<svg xmlns="http://www.w3.org/2000/svg" version="1.1" width="687px" height="121px" style="shape-rendering:geometricPrecision; text-rendering:geometricPrecision; image-rendering:optimizeQuality; fill-rule:evenodd; clip-rule:evenodd" xmlns:xlink="http://www.w3.org/1999/xlink">
<g><path style="opacity:1" fill="#f3f4f2" d="M 23.5,17.5 C 24.8734,17.3433 26.2068,17.51 27.5,18C 33.651,22.907 40.651,25.907 48.5,27C 59.8438,27.6601 71.1771,27.4935 82.5,26.5C 88.1484,26.3293 93.4817,27.4959 98.5,30C 100.79,31.7772 102.457,33.9438 103.5,36.5C 103.824,40.5546 103.491,44.5546 102.5,48.5C 99.9066,50.0708 98.9066,52.4041 99.5,55.5C 90.8217,62.3351 80.8217,65.5018 69.5,65C 74.3078,66.0466 77.3078,68.8799 78.5,73.5C 77.7279,77.4517 77.3946,81.4517 77.5,85.5C 77.317,87.9363 77.9837,90.103 79.5,92C 86.2909,92.9614 92.6242,91.6281 98.5,88C 93.2178,88.505 87.8844,88.505 82.5,88C 79.8748,85.8038 78.8748,82.9705 79.5,79.5C 79.8333,79.5 80.1667,79.5 80.5,79.5C 81.9063,79.0269 82.573,78.0269 82.5,76.5C 88.7772,70.0298 96.4438,66.8631 105.5,67C 112.336,69.8014 114.336,74.6347 111.5,81.5C 106.482,83.8199 103.816,87.8199 103.5,93.5C 98.5526,97.2977 92.8859,99.4644 86.5,100C 79.5,100.667 72.5,100.667 65.5,100C 59.8632,98.5336 56.5298,95.0336 55.5,89.5C 55.8297,83.1318 55.4963,76.7985 54.5,70.5C 53.8182,69.7573 53.1515,69.0906 52.5,68.5C 50.863,66.5248 49.1964,64.5248 47.5,62.5C 47.44,61.9569 47.1067,61.6236 46.5,61.5C 46.1667,64.6667 45.8333,67.8333 45.5,71C 45.5152,74.5758 46.1818,77.7425 47.5,80.5C 48.5,85.8333 49.5,91.1667 50.5,96.5C 37.8408,97.0649 25.1742,97.3982 12.5,97.5C 12.5,94.8333 12.5,92.1667 12.5,89.5C 15.695,90.0393 18.195,89.0393 20,86.5C 20.5194,76.6092 21.6861,66.9425 23.5,57.5C 24.913,54.7814 25.5797,51.7814 25.5,48.5C 25.5,48.1667 25.5,47.8333 25.5,47.5C 27.0739,45.8984 27.7406,43.8984 27.5,41.5C 27.8954,38.3138 28.8954,35.3138 30.5,32.5C 27.4436,31.8038 24.4436,30.9704 21.5,30C 20.2475,28.1722 20.2475,26.3388 21.5,24.5C 23.1628,22.5615 23.8294,20.2282 23.5,17.5 Z M 58.5,37.5 C 67.6905,37.8399 75.8572,40.8399 83,46.5C 84.3247,51.1883 82.4914,53.6883 77.5,54C 66.9086,55.7157 56.9086,54.049 47.5,49C 43.6108,47.1178 42.9441,44.6178 45.5,41.5C 49.7424,39.4375 54.0757,38.1041 58.5,37.5 Z M 79.5,79.5 C 78.8748,82.9705 79.8748,85.8038 82.5,88C 87.8844,88.505 93.2178,88.505 98.5,88C 92.6242,91.6281 86.2909,92.9614 79.5,92C 77.9837,90.103 77.317,87.9363 77.5,85.5C 78.1667,83.5 78.8333,81.5 79.5,79.5 Z"/></g>
<g><path style="opacity:1" fill="#547094" d="M 23.5,17.5 C 23.8294,20.2282 23.1628,22.5615 21.5,24.5C 21.7215,21.9327 22.3882,19.5994 23.5,17.5 Z"/></g>
<g><path style="opacity:1" fill="#4b5770" d="M 629.5,21.5 C 627.824,22.1834 627.157,23.5168 627.5,25.5C 626.751,24.469 626.085,23.3024 625.5,22C 626.818,20.3702 628.151,20.2035 629.5,21.5 Z"/></g>
<g><path style="opacity:1" fill="#f3f3f2" d="M 612.5,29.5 C 613.23,31.045 614.563,31.8784 616.5,32C 613.987,34.2813 610.987,36.7813 607.5,39.5C 606.534,41.396 606.201,43.396 606.5,45.5C 605.846,49.8394 606.846,53.6727 609.5,57C 617.242,60.5463 625.242,61.213 633.5,59C 644.248,56.353 648.581,49.5196 646.5,38.5C 646.08,36.326 646.08,34.326 646.5,32.5C 645.68,30.8888 644.346,30.2222 642.5,30.5C 637.786,30.8266 633.12,30.4933 628.5,29.5C 627.754,28.2638 627.421,26.9305 627.5,25.5C 627.157,23.5168 627.824,22.1834 629.5,21.5C 639.509,21.6117 649.509,21.945 659.5,22.5C 661.844,22.9397 663.844,23.9397 665.5,25.5C 665.579,26.9305 665.246,28.2638 664.5,29.5C 661.553,30.3214 658.553,30.8214 655.5,31C 656.305,32.1127 656.972,33.2794 657.5,34.5C 659.748,40.1248 662.581,45.4581 666,50.5C 666.498,53.8168 666.665,57.1501 666.5,60.5C 665.008,65.4901 661.674,68.6567 656.5,70C 651.937,71.4749 647.27,72.3083 642.5,72.5C 641.167,74.5 641.167,76.5 642.5,78.5C 644.163,84.8294 648.163,88.8294 654.5,90.5C 656.833,91.1667 659.167,91.8333 661.5,92.5C 660.191,96.6407 657.357,98.6407 653,98.5C 646.333,97.8333 639.667,97.1667 633,96.5C 622.517,97.6658 612.017,98.1658 601.5,98C 599.167,95 596.833,92 594.5,89C 599.833,88.6667 605.167,88.3333 610.5,88C 615.105,84.1949 615.772,79.6949 612.5,74.5C 606.517,73.4726 600.851,71.806 595.5,69.5C 594.604,66.9308 592.938,64.9308 590.5,63.5C 589.575,64.6405 588.741,64.6405 588,63.5C 587.56,61.9238 586.727,60.5904 585.5,59.5C 586.609,57.7859 585.942,57.1192 583.5,57.5C 582.359,54.3601 582.192,51.0267 583,47.5C 583.697,45.4156 584.864,43.7489 586.5,42.5C 587.906,42.0269 588.573,41.0269 588.5,39.5C 589.222,39.9175 589.722,40.5842 590,41.5C 592.703,39.634 595.537,37.9674 598.5,36.5C 599.093,34.6183 599.76,32.7849 600.5,31C 596.72,30.7617 592.72,30.595 588.5,30.5C 582.207,30.4207 580.707,28.0873 584,23.5C 585.062,22.1007 586.395,21.1007 588,20.5C 596.234,23.4102 604.4,26.4102 612.5,29.5 Z"/></g>
<g><path style="opacity:1" fill="#f3f4f3" d="M 340.5,38.5 C 340.336,41.1873 340.503,43.854 341,46.5C 342.743,49.8057 344.91,52.8057 347.5,55.5C 350.426,65.2771 353.759,74.9437 357.5,84.5C 360.772,86.9108 364.439,88.5774 368.5,89.5C 367.453,92.4302 365.787,94.9302 363.5,97C 351.514,96.8304 339.514,97.3304 327.5,98.5C 328.799,89.1622 328.799,79.8288 327.5,70.5C 322.064,70.3205 316.73,69.6538 311.5,68.5C 309.393,67.5318 307.059,67.1984 304.5,67.5C 301.573,74.2334 299.24,81.2334 297.5,88.5C 298.5,88.5 299.5,88.5 300.5,88.5C 304.5,88.5 308.5,88.5 312.5,88.5C 312.5,92.5 312.5,96.5 312.5,100.5C 299.581,97.1872 286.581,94.0205 273.5,91C 275.167,88.6667 276.833,86.3333 278.5,84C 280.885,83.4436 283.218,83.6103 285.5,84.5C 287.085,84.9854 288.585,84.3188 290,82.5C 292.648,76.775 294.481,70.775 295.5,64.5C 295.767,62.0347 296.434,59.7014 297.5,57.5C 299.074,55.8984 299.741,53.8984 299.5,51.5C 299.5,51.1667 299.5,50.8333 299.5,50.5C 301.163,48.5615 301.829,46.2282 301.5,43.5C 301.448,41.0971 301.781,38.7638 302.5,36.5C 303.625,33.0913 304.959,29.758 306.5,26.5C 313.298,25.6341 319.965,24.1341 326.5,22C 328.902,21.1859 331.235,21.3526 333.5,22.5C 336.395,27.6207 338.729,32.9541 340.5,38.5 Z M 329.5,44.5 C 330.833,46.8333 330.833,49.1667 329.5,51.5C 328.607,54.4608 326.607,56.2941 323.5,57C 319.08,57.7684 314.747,57.6018 310.5,56.5C 308.752,54.8401 308.252,52.8401 309,50.5C 310.694,47.6424 312.861,45.309 315.5,43.5C 320.523,40.9181 325.189,41.2514 329.5,44.5 Z"/></g>
<g><path style="opacity:1" fill="#f5f6f5" d="M 448.5,21.5 C 448.675,23.6208 448.341,25.6208 447.5,27.5C 444.089,27.6573 441.422,28.9906 439.5,31.5C 437.598,34.3373 436.931,37.6707 437.5,41.5C 436.359,44.6399 436.192,47.9733 437,51.5C 439.098,55.5488 440.431,59.8822 441,64.5C 442.11,66.0368 443.61,66.7035 445.5,66.5C 447.6,69.1041 449.933,71.6041 452.5,74C 453.635,74.7494 454.635,74.5827 455.5,73.5C 456.596,67.8618 456.596,62.1952 455.5,56.5C 455.829,53.7718 455.163,51.4385 453.5,49.5C 452.031,45.0932 450.364,40.7599 448.5,36.5C 453.96,35.1709 459.793,34.5042 466,34.5C 472.207,34.5042 478.04,35.1709 483.5,36.5C 483.056,38.1132 482.056,39.2798 480.5,40C 476.781,40.3884 473.114,41.0551 469.5,42C 477.95,49.4016 483.45,58.5683 486,69.5C 487.351,80.9703 482.851,89.137 472.5,94C 462.328,96.4398 453.661,93.9398 446.5,86.5C 443.004,82.828 440.004,78.828 437.5,74.5C 437.631,73.6236 437.298,72.9569 436.5,72.5C 435.513,75.7683 435.18,79.1016 435.5,82.5C 434.349,95.9838 427.016,102.317 413.5,101.5C 398.474,101.879 385.641,96.8794 375,86.5C 371.583,81.2491 370.417,75.5824 371.5,69.5C 372.924,67.4855 373.59,65.1522 373.5,62.5C 373.402,60.4471 374.069,58.7804 375.5,57.5C 379.26,54.695 382.093,51.0284 384,46.5C 386.519,45.368 389.019,43.5346 391.5,41C 391,40.5 390.5,40 390,39.5C 388.644,40.3802 387.144,40.7135 385.5,40.5C 381.434,40.693 377.434,40.3597 373.5,39.5C 373.5,36.8333 373.5,34.1667 373.5,31.5C 373.34,29.8008 373.506,28.1341 374,26.5C 374.893,25.9186 375.893,25.5852 377,25.5C 388.156,30.9644 399.989,33.2978 412.5,32.5C 412.293,35.2406 411.293,37.5739 409.5,39.5C 406.92,40.6155 405.254,42.6155 404.5,45.5C 402.689,49.6685 401.689,54.0019 401.5,58.5C 399.885,61.5943 398.385,64.9277 397,68.5C 396.501,72.1516 396.335,75.8183 396.5,79.5C 397.5,79.5 398.5,79.5 399.5,79.5C 398.82,83.7906 400.486,86.4573 404.5,87.5C 405.708,88.2341 407.041,88.5674 408.5,88.5C 410.269,87.5786 411.935,86.4119 413.5,85C 413.014,82.9734 413.014,80.8067 413.5,78.5C 413.5,78.1667 413.5,77.8333 413.5,77.5C 415.163,75.5615 415.829,73.2282 415.5,70.5C 417.092,58.2258 417.758,45.8925 417.5,33.5C 417.5,31.1667 417.5,28.8333 417.5,26.5C 418.791,26.7373 419.791,26.404 420.5,25.5C 429.773,23.7322 439.106,22.3989 448.5,21.5 Z"/></g>
<g><path style="opacity:1" fill="#f2f3f1" d="M 489.5,91.5 C 490.167,89.8333 490.833,88.1667 491.5,86.5C 491.414,85.5041 491.748,84.6708 492.5,84C 495.195,83.7457 497.695,83.579 500,83.5C 504.901,75.2958 508.734,66.6291 511.5,57.5C 513.68,54.619 514.68,51.2856 514.5,47.5C 514.5,47.1667 514.5,46.8333 514.5,46.5C 516.223,44.22 516.889,41.5533 516.5,38.5C 516.646,34.4809 516.979,30.4809 517.5,26.5C 526.491,25.711 535.325,24.0443 544,21.5C 545.167,21.8333 546.333,22.1667 547.5,22.5C 551.484,29.9559 554.984,37.6226 558,45.5C 562.269,58.9729 566.935,72.3063 572,85.5C 575.239,87.352 578.739,88.352 582.5,88.5C 581.726,91.3809 580.393,94.0476 578.5,96.5C 566.208,96.7725 553.875,97.4392 541.5,98.5C 542.799,89.1622 542.799,79.8288 541.5,70.5C 534.492,69.9156 527.492,69.2489 520.5,68.5C 518.767,75.0287 516.434,81.362 513.5,87.5C 517.783,88.4922 522.116,88.8256 526.5,88.5C 526.665,91.8499 526.498,95.1832 526,98.5C 525.326,99.5784 524.326,100.245 523,100.5C 512.009,96.7941 500.842,93.7941 489.5,91.5 Z M 543.5,44.5 C 544.833,46.8333 544.833,49.1667 543.5,51.5C 540.953,56.1071 536.953,58.1071 531.5,57.5C 524.253,58.1041 521.753,55.1041 524,48.5C 529.719,42.0559 536.219,40.7226 543.5,44.5 Z"/></g>
<g><path style="opacity:0.212" fill="#4e463e" d="M 659.5,22.5 C 661.833,22.5 664.167,22.5 666.5,22.5C 666.737,23.791 666.404,24.791 665.5,25.5C 663.844,23.9397 661.844,22.9397 659.5,22.5 Z"/></g>
<g><path style="opacity:1" fill="#f4f5f5" d="M 232.5,25.5 C 233.167,26.8333 233.833,28.1667 234.5,29.5C 231.846,35.2787 230.346,41.2787 230,47.5C 234.768,39.734 240.601,32.9007 247.5,27C 252.123,23.613 257.123,22.4463 262.5,23.5C 262.541,25.7453 263.375,26.4119 265,25.5C 265.495,27.4727 265.662,29.4727 265.5,31.5C 266.5,31.5 267.5,31.5 268.5,31.5C 268.346,37.4623 269.012,43.2957 270.5,49C 268.607,65.2049 266.607,81.3716 264.5,97.5C 265.437,99.6424 266.77,99.9757 268.5,98.5C 271.555,98.7261 273.889,100.059 275.5,102.5C 275.173,105.36 273.507,106.693 270.5,106.5C 261.507,105.069 252.674,103.069 244,100.5C 248.416,85.8582 249.582,70.8582 247.5,55.5C 247.663,53.1432 247.497,50.8098 247,48.5C 246.085,50.9803 244.585,51.6469 242.5,50.5C 239.987,52.3281 238.321,54.6615 237.5,57.5C 237.5,58.1667 237.167,58.5 236.5,58.5C 233.5,58.1667 232.167,59.5 232.5,62.5C 231.022,62.238 229.689,62.5713 228.5,63.5C 229.025,64.1924 229.692,64.6924 230.5,65C 229.874,65.7504 229.374,66.5838 229,67.5C 228.333,73.1667 228.333,78.8333 229,84.5C 230.367,83.4757 231.2,83.9757 231.5,86C 230.633,89.1052 230.299,92.2719 230.5,95.5C 231.5,95.5 232.5,95.5 233.5,95.5C 233.263,96.791 233.596,97.791 234.5,98.5C 235.043,98.56 235.376,98.8933 235.5,99.5C 234.667,99.8333 233.833,100.167 233,100.5C 226.803,98.5341 220.469,97.2008 214,96.5C 209.42,97.3152 204.92,98.3152 200.5,99.5C 200.5,95.5 200.5,91.5 200.5,87.5C 203.961,86.5894 207.294,86.2561 210.5,86.5C 208.033,78.6975 206.533,70.6975 206,62.5C 205.667,52.8333 205.333,43.1667 205,33.5C 202.903,32.009 200.57,31.009 198,30.5C 197.51,31.7932 197.343,33.1266 197.5,34.5C 194.5,34.5 191.5,34.5 188.5,34.5C 187.876,36.8337 187.043,39.1671 186,41.5C 185.667,50.8333 185.333,60.1667 185,69.5C 183.923,71.116 183.423,72.9493 183.5,75C 183.508,76.7067 183.842,78.2067 184.5,79.5C 184.47,80.4972 184.97,81.1639 186,81.5C 189.493,80.3311 192.993,80.3311 196.5,81.5C 196.5,84.5 196.5,87.5 196.5,90.5C 184.777,91.1297 173.777,94.2963 163.5,100C 161.866,100.494 160.199,100.66 158.5,100.5C 158.366,98.7085 158.699,97.0418 159.5,95.5C 161.379,92.1439 161.879,88.4773 161,84.5C 160.283,85.0442 159.783,85.7109 159.5,86.5C 148.502,98.667 135.502,101.5 120.5,95C 115.6,88.1599 114.266,80.6599 116.5,72.5C 117.924,70.4855 118.59,68.1522 118.5,65.5C 118.796,63.597 119.463,61.9303 120.5,60.5C 122.532,59.9522 123.532,58.6188 123.5,56.5C 124.5,56.5 125.5,56.5 126.5,56.5C 126.5,55.1667 126.5,53.8333 126.5,52.5C 128.484,52.6168 130.15,51.9501 131.5,50.5C 133.555,47.3195 135.221,43.9861 136.5,40.5C 136.611,39.8826 136.944,39.3826 137.5,39C 133.973,38.1925 130.64,38.3592 127.5,39.5C 124.15,39.665 120.817,39.4983 117.5,39C 118.066,38.0053 118.733,37.172 119.5,36.5C 120.947,35.3778 121.947,33.8778 122.5,32C 134.162,31.5001 145.829,31.3335 157.5,31.5C 155.147,36.3616 153.147,41.3616 151.5,46.5C 150.141,47.0065 149.141,48.0065 148.5,49.5C 146.89,52.6839 145.89,56.0172 145.5,59.5C 143.782,61.3637 142.615,63.6971 142,66.5C 141.833,68.8333 141.667,71.1667 141.5,73.5C 141.529,76.2695 142.195,78.6028 143.5,80.5C 145.213,82.8504 147.547,83.8504 150.5,83.5C 156.21,82.1145 158.877,78.4478 158.5,72.5C 161.431,69.9867 162.765,66.6533 162.5,62.5C 164.04,60.1617 164.706,57.4951 164.5,54.5C 166.03,43.4461 166.863,32.4461 167,21.5C 167.725,20.9415 168.558,20.6082 169.5,20.5C 177.883,22.679 186.217,25.0123 194.5,27.5C 195.429,26.3112 195.762,24.9778 195.5,23.5C 207.851,23.8604 220.185,24.527 232.5,25.5 Z"/></g>
<g><path style="opacity:0.976" fill="#918272" d="M 448.5,21.5 C 449.339,22.6412 450.006,23.9745 450.5,25.5C 449.995,26.9185 448.995,27.5852 447.5,27.5C 448.341,25.6208 448.675,23.6208 448.5,21.5 Z"/></g>
<g><path style="opacity:0.969" fill="#646f7f" d="M 420.5,25.5 C 419.791,26.404 418.791,26.7373 417.5,26.5C 417.5,28.8333 417.5,31.1667 417.5,33.5C 416.784,31.4437 416.117,29.277 415.5,27C 416.905,25.7308 418.571,25.2308 420.5,25.5 Z"/></g>
<g><path style="opacity:1" fill="#a99d90" d="M 232.5,25.5 C 233.833,25.5 235.167,25.5 236.5,25.5C 236.771,27.3797 236.104,28.713 234.5,29.5C 233.833,28.1667 233.167,26.8333 232.5,25.5 Z"/></g>
<g><path style="opacity:0.831" fill="#7b7f84" d="M 160.5,31.5 C 159.5,31.5 158.5,31.5 157.5,31.5C 145.829,31.3335 134.162,31.5001 122.5,32C 121.947,33.8778 120.947,35.3778 119.5,36.5C 119.869,34.5588 120.536,32.7255 121.5,31C 135.243,30.1767 148.243,30.3433 160.5,31.5 Z"/></g>
<g><path style="opacity:1" fill="#c2b6a7" d="M 612.5,29.5 C 620.362,30.4204 621.029,32.5871 614.5,36C 611.217,38.772 608.55,41.9386 606.5,45.5C 606.201,43.396 606.534,41.396 607.5,39.5C 610.987,36.7813 613.987,34.2813 616.5,32C 614.563,31.8784 613.23,31.045 612.5,29.5 Z"/></g>
<g><path style="opacity:1" fill="#a5b6c6" d="M 642.5,30.5 C 644.346,30.2222 645.68,30.8888 646.5,32.5C 646.08,34.326 646.08,36.326 646.5,38.5C 645.186,35.8721 643.853,33.2054 642.5,30.5 Z"/></g>
<g><path style="opacity:1" fill="#728397" d="M 306.5,26.5 C 304.959,29.758 303.625,33.0913 302.5,36.5C 302.833,33.1667 303.167,29.8333 303.5,26.5C 304.5,26.5 305.5,26.5 306.5,26.5 Z"/></g>
<g><path style="opacity:0.973" fill="#bb9e7f" d="M 439.5,31.5 C 438.771,36.1304 438.437,40.7971 438.5,45.5C 437.566,44.4324 437.232,43.099 437.5,41.5C 436.931,37.6707 437.598,34.3373 439.5,31.5 Z"/></g>
<g><path style="opacity:0.198" fill="#4a4949" d="M 483.5,36.5 C 478.04,35.1709 472.207,34.5042 466,34.5C 459.793,34.5042 453.96,35.1709 448.5,36.5C 447.596,35.791 447.263,34.791 447.5,33.5C 459.833,33.5 472.167,33.5 484.5,33.5C 484.737,34.791 484.404,35.791 483.5,36.5 Z"/></g>
<g><path style="opacity:1" fill="#cfd7da" d="M 588.5,30.5 C 592.72,30.595 596.72,30.7617 600.5,31C 599.76,32.7849 599.093,34.6183 598.5,36.5C 595.537,37.9674 592.703,39.634 590,41.5C 589.722,40.5842 589.222,39.9175 588.5,39.5C 590.713,37.1397 593.379,35.3063 596.5,34C 593.769,32.8277 591.102,31.6611 588.5,30.5 Z"/></g>
<g><path style="opacity:1" fill="#5d738f" d="M 373.5,31.5 C 373.5,34.1667 373.5,36.8333 373.5,39.5C 372.711,39.2172 372.044,38.7172 371.5,38C 372.117,35.723 372.784,33.5563 373.5,31.5 Z"/></g>
<g><path style="opacity:0.169" fill="#484c51" d="M 127.5,39.5 C 130.64,38.3592 133.973,38.1925 137.5,39C 136.944,39.3826 136.611,39.8826 136.5,40.5C 136.167,40.5 135.833,40.5 135.5,40.5C 133.052,39.5269 130.385,39.1936 127.5,39.5 Z"/></g>
<g><path style="opacity:1" fill="#c7b79f" d="M 157.5,31.5 C 158.5,31.5 159.5,31.5 160.5,31.5C 157.748,36.6737 154.748,41.6737 151.5,46.5C 153.147,41.3616 155.147,36.3616 157.5,31.5 Z"/></g>
<g><path style="opacity:1" fill="#616e89" d="M 588.5,39.5 C 588.573,41.0269 587.906,42.0269 586.5,42.5C 586.427,40.9731 587.094,39.9731 588.5,39.5 Z"/></g>
<g><path style="opacity:1" fill="#4e667f" d="M 516.5,38.5 C 516.889,41.5533 516.223,44.22 514.5,46.5C 514.802,43.6275 515.469,40.9608 516.5,38.5 Z"/></g>
<g><path style="opacity:1" fill="#d9cdb8" d="M 262.5,23.5 C 265.365,24.1912 267.532,25.8579 269,28.5C 272.354,38.9101 273.354,49.5768 272,60.5C 269.957,71.0901 268.457,81.7568 267.5,92.5C 267.672,94.5477 268.005,96.5477 268.5,98.5C 266.77,99.9757 265.437,99.6424 264.5,97.5C 266.607,81.3716 268.607,65.2049 270.5,49C 269.012,43.2957 268.346,37.4623 268.5,31.5C 267.5,31.5 266.5,31.5 265.5,31.5C 265.662,29.4727 265.495,27.4727 265,25.5C 263.375,26.4119 262.541,25.7453 262.5,23.5 Z"/></g>
<g><path style="opacity:1" fill="#d3c9ba" d="M 315.5,43.5 C 312.861,45.309 310.694,47.6424 309,50.5C 308.252,52.8401 308.752,54.8401 310.5,56.5C 309.849,57.0906 309.182,57.7573 308.5,58.5C 307.467,53.9978 307.467,49.8312 308.5,46C 310.321,43.8634 312.654,43.0301 315.5,43.5 Z"/></g>
<g><path style="opacity:1" fill="#c4b499" d="M 657.5,34.5 C 665.682,41.5012 668.682,50.1678 666.5,60.5C 666.665,57.1501 666.498,53.8168 666,50.5C 662.581,45.4581 659.748,40.1248 657.5,34.5 Z"/></g>
<g><path style="opacity:1" fill="#536d8e" d="M 27.5,41.5 C 27.7406,43.8984 27.0739,45.8984 25.5,47.5C 25.595,45.2143 26.2616,43.2143 27.5,41.5 Z"/></g>
<g><path style="opacity:1" fill="#b49984" d="M 103.5,36.5 C 106.278,43.6094 104.944,49.9428 99.5,55.5C 98.9066,52.4041 99.9066,50.0708 102.5,48.5C 103.491,44.5546 103.824,40.5546 103.5,36.5 Z"/></g>
<g><path style="opacity:1" fill="#d1dde2" d="M 135.5,40.5 C 135.833,40.5 136.167,40.5 136.5,40.5C 135.221,43.9861 133.555,47.3195 131.5,50.5C 130.15,51.9501 128.484,52.6168 126.5,52.5C 126.5,53.8333 126.5,55.1667 126.5,56.5C 125.5,56.5 124.5,56.5 123.5,56.5C 123.532,58.6188 122.532,59.9522 120.5,60.5C 123.968,52.6966 128.968,46.03 135.5,40.5 Z"/></g>
<g><path style="opacity:1" fill="#6a778b" d="M 329.5,44.5 C 330.947,45.1342 331.613,46.3009 331.5,48C 331.613,49.6991 330.947,50.8658 329.5,51.5C 330.833,49.1667 330.833,46.8333 329.5,44.5 Z"/></g>
<g><path style="opacity:1" fill="#ddcdb8" d="M 340.5,38.5 C 343.4,43.8483 345.733,49.5149 347.5,55.5C 344.91,52.8057 342.743,49.8057 341,46.5C 340.503,43.854 340.336,41.1873 340.5,38.5 Z"/></g>
<g><path style="opacity:1" fill="#617c9c" d="M 543.5,44.5 C 544.947,45.1342 545.613,46.3009 545.5,48C 545.613,49.6991 544.947,50.8658 543.5,51.5C 544.833,49.1667 544.833,46.8333 543.5,44.5 Z"/></g>
<g><path style="opacity:1" fill="#596e8c" d="M 301.5,43.5 C 301.829,46.2282 301.163,48.5615 299.5,50.5C 299.721,47.9327 300.388,45.5994 301.5,43.5 Z"/></g>
<g><path style="opacity:1" fill="#c8c7c4" d="M 247.5,55.5 C 246.341,54.5442 245.174,53.5442 244,52.5C 241.683,53.9852 239.516,55.6519 237.5,57.5C 238.321,54.6615 239.987,52.3281 242.5,50.5C 244.585,51.6469 246.085,50.9803 247,48.5C 247.497,50.8098 247.663,53.1432 247.5,55.5 Z"/></g>
<g><path style="opacity:1" fill="#b3a28a" d="M 151.5,46.5 C 149.87,51.0806 147.87,55.4139 145.5,59.5C 145.89,56.0172 146.89,52.6839 148.5,49.5C 149.141,48.0065 150.141,47.0065 151.5,46.5 Z"/></g>
<g><path style="opacity:1" fill="#cad7df" d="M 375.5,57.5 C 378.065,51.3672 381.399,45.7006 385.5,40.5C 387.144,40.7135 388.644,40.3802 390,39.5C 390.5,40 391,40.5 391.5,41C 389.019,43.5346 386.519,45.368 384,46.5C 382.093,51.0284 379.26,54.695 375.5,57.5 Z"/></g>
<g><path style="opacity:1" fill="#5c7495" d="M 514.5,47.5 C 514.68,51.2856 513.68,54.619 511.5,57.5C 512.13,53.9523 513.13,50.6189 514.5,47.5 Z"/></g>
<g><path style="opacity:1" fill="#516b85" d="M 25.5,48.5 C 25.5797,51.7814 24.913,54.7814 23.5,57.5C 23.4203,54.2186 24.087,51.2186 25.5,48.5 Z"/></g>
<g><path style="opacity:1" fill="#d5c3ad" d="M 409.5,39.5 C 406.518,45.7861 403.851,52.1194 401.5,58.5C 401.689,54.0019 402.689,49.6685 404.5,45.5C 405.254,42.6155 406.92,40.6155 409.5,39.5 Z"/></g>
<g><path style="opacity:1" fill="#455878" d="M 453.5,49.5 C 455.163,51.4385 455.829,53.7718 455.5,56.5C 454.388,54.4006 453.721,52.0673 453.5,49.5 Z"/></g>
<g><path style="opacity:1" fill="#50688c" d="M 299.5,51.5 C 299.741,53.8984 299.074,55.8984 297.5,57.5C 297.595,55.2143 298.262,53.2143 299.5,51.5 Z"/></g>
<g><path style="opacity:1" fill="#607a92" d="M 164.5,54.5 C 164.706,57.4951 164.04,60.1617 162.5,62.5C 162.565,59.5718 163.232,56.9052 164.5,54.5 Z"/></g>
<g><path style="opacity:1" fill="#f2e8d4" d="M 437.5,41.5 C 437.232,43.099 437.566,44.4324 438.5,45.5C 439.838,52.8463 442.171,59.8463 445.5,66.5C 443.61,66.7035 442.11,66.0368 441,64.5C 440.431,59.8822 439.098,55.5488 437,51.5C 436.192,47.9733 436.359,44.6399 437.5,41.5 Z"/></g>
<g><path style="opacity:1" fill="#c0ccd3" d="M 583.5,57.5 C 585.942,57.1192 586.609,57.7859 585.5,59.5C 586.727,60.5904 587.56,61.9238 588,63.5C 588.741,64.6405 589.575,64.6405 590.5,63.5C 592.938,64.9308 594.604,66.9308 595.5,69.5C 589.167,67.8333 585.167,63.8333 583.5,57.5 Z"/></g>
<g><path style="opacity:0.996" fill="#deceb4" d="M 145.5,59.5 C 143.248,66.3992 142.582,73.3992 143.5,80.5C 142.195,78.6028 141.529,76.2695 141.5,73.5C 141.667,71.1667 141.833,68.8333 142,66.5C 142.615,63.6971 143.782,61.3637 145.5,59.5 Z"/></g>
<g><path style="opacity:1" fill="#516d86" d="M 373.5,62.5 C 373.59,65.1522 372.924,67.4855 371.5,69.5C 371.41,66.8478 372.076,64.5145 373.5,62.5 Z"/></g>
<g><path style="opacity:1" fill="#91a6b6" d="M 162.5,62.5 C 162.765,66.6533 161.431,69.9867 158.5,72.5C 159.658,69.0111 160.991,65.6777 162.5,62.5 Z"/></g>
<g><path style="opacity:0.984" fill="#ccba9f" d="M 188.5,34.5 C 188.488,49.667 187.154,64.667 184.5,79.5C 183.842,78.2067 183.508,76.7067 183.5,75C 183.423,72.9493 183.923,71.116 185,69.5C 185.333,60.1667 185.667,50.8333 186,41.5C 187.043,39.1671 187.876,36.8337 188.5,34.5 Z"/></g>
<g><path style="opacity:1" fill="#4c5e77" d="M 118.5,65.5 C 118.59,68.1522 117.924,70.4855 116.5,72.5C 116.41,69.8478 117.076,67.5145 118.5,65.5 Z"/></g>
<g><path style="opacity:1" fill="#f1e7d6" d="M 236.5,58.5 C 233.731,63.1289 231.731,68.1289 230.5,73.5C 231.835,81.8414 233.169,90.1747 234.5,98.5C 233.596,97.791 233.263,96.791 233.5,95.5C 232.5,95.5 231.5,95.5 230.5,95.5C 230.299,92.2719 230.633,89.1052 231.5,86C 231.2,83.9757 230.367,83.4757 229,84.5C 228.333,78.8333 228.333,73.1667 229,67.5C 229.374,66.5838 229.874,65.7504 230.5,65C 229.692,64.6924 229.025,64.1924 228.5,63.5C 229.689,62.5713 231.022,62.238 232.5,62.5C 232.167,59.5 233.5,58.1667 236.5,58.5 Z"/></g>
<g><path style="opacity:0.978" fill="#7c94aa" d="M 52.5,68.5 C 53.1515,69.0906 53.8182,69.7573 54.5,70.5C 55.4963,76.7985 55.8297,83.1318 55.5,89.5C 54.8953,82.5628 53.8953,75.5628 52.5,68.5 Z"/></g>
<g><path style="opacity:1" fill="#e8ddc7" d="M 401.5,58.5 C 399.58,66.1629 399.414,73.8296 401,81.5C 401.926,83.6917 403.093,85.6917 404.5,87.5C 400.486,86.4573 398.82,83.7906 399.5,79.5C 398.5,79.5 397.5,79.5 396.5,79.5C 396.335,75.8183 396.501,72.1516 397,68.5C 398.385,64.9277 399.885,61.5943 401.5,58.5 Z"/></g>
<g><path style="opacity:0.894" fill="#ab927e" d="M 437.5,74.5 C 436.833,77.1667 436.167,79.8333 435.5,82.5C 435.18,79.1016 435.513,75.7683 436.5,72.5C 437.298,72.9569 437.631,73.6236 437.5,74.5 Z"/></g>
<g><path style="opacity:0.09" fill="#795d42" d="M 642.5,72.5 C 642.935,74.7033 642.935,76.7033 642.5,78.5C 641.167,76.5 641.167,74.5 642.5,72.5 Z"/></g>
<g><path style="opacity:0.941" fill="#496681" d="M 415.5,70.5 C 415.829,73.2282 415.163,75.5615 413.5,77.5C 413.721,74.9327 414.388,72.5994 415.5,70.5 Z"/></g>
<g><path style="opacity:0.957" fill="#c0ab8c" d="M 47.5,62.5 C 46.3357,68.3494 46.3357,74.3494 47.5,80.5C 46.1818,77.7425 45.5152,74.5758 45.5,71C 45.8333,67.8333 46.1667,64.6667 46.5,61.5C 47.1067,61.6236 47.44,61.9569 47.5,62.5 Z"/></g>
<g><path style="opacity:0.937" fill="#b19578" d="M 78.5,73.5 C 79.4614,75.2646 79.7947,77.2646 79.5,79.5C 78.8333,81.5 78.1667,83.5 77.5,85.5C 77.3946,81.4517 77.7279,77.4517 78.5,73.5 Z"/></g>
<g><path style="opacity:1" fill="#e1d8c8" d="M 311.5,68.5 C 309.833,68.5 308.167,68.5 306.5,68.5C 304.86,74.9202 302.526,81.0869 299.5,87C 300.056,87.3826 300.389,87.8826 300.5,88.5C 299.5,88.5 298.5,88.5 297.5,88.5C 299.24,81.2334 301.573,74.2334 304.5,67.5C 307.059,67.1984 309.393,67.5318 311.5,68.5 Z"/></g>
<g><path style="opacity:0.976" fill="#556379" d="M 82.5,76.5 C 82.573,78.0269 81.9063,79.0269 80.5,79.5C 80.427,77.9731 81.0937,76.9731 82.5,76.5 Z"/></g>
<g><path style="opacity:0.992" fill="#9cb0bd" d="M 158.5,72.5 C 158.877,78.4478 156.21,82.1145 150.5,83.5C 153.913,80.3265 156.58,76.6598 158.5,72.5 Z"/></g>
<g><path style="opacity:1" fill="#b1bfcd" d="M 295.5,64.5 C 294.481,70.775 292.648,76.775 290,82.5C 288.585,84.3188 287.085,84.9854 285.5,84.5C 289.393,78.0468 292.727,71.3801 295.5,64.5 Z"/></g>
<g><path style="opacity:1" fill="#939fb4" d="M 413.5,78.5 C 413.014,80.8067 413.014,82.9734 413.5,85C 411.935,86.4119 410.269,87.5786 408.5,88.5C 410.199,85.1013 411.866,81.768 413.5,78.5 Z"/></g>
<g><path style="opacity:1" fill="#dfd6bd" d="M 111.5,81.5 C 110.002,86.3217 107.336,90.3217 103.5,93.5C 103.816,87.8199 106.482,83.8199 111.5,81.5 Z"/></g>
<g><path style="opacity:1" fill="#62758f" d="M 159.5,95.5 C 160.368,92.3273 160.368,89.3273 159.5,86.5C 159.783,85.7109 160.283,85.0442 161,84.5C 161.879,88.4773 161.379,92.1439 159.5,95.5 Z"/></g>
<g><path style="opacity:0.831" fill="#7a8ea0" d="M 491.5,86.5 C 490.833,88.1667 490.167,89.8333 489.5,91.5C 488.761,91.631 488.094,91.4643 487.5,91C 488.328,89.0077 489.661,87.5077 491.5,86.5 Z"/></g>
<g><path style="opacity:0.369" fill="#534f48" d="M 654.5,90.5 C 657.247,90.1866 659.914,90.52 662.5,91.5C 662.376,92.1067 662.043,92.44 661.5,92.5C 659.167,91.8333 656.833,91.1667 654.5,90.5 Z"/></g>
</svg>
