<?xml version="1.0" encoding="UTF-8"?>
<!DOCTYPE svg PUBLIC "-//W3C//DTD SVG 1.1//EN" "http://www.w3.org/Graphics/SVG/1.1/DTD/svg11.dtd">
<svg xmlns="http://www.w3.org/2000/svg" version="1.1" width="500px" height="500px" style="shape-rendering:geometricPrecision; text-rendering:geometricPrecision; image-rendering:optimizeQuality; fill-rule:evenodd; clip-rule:evenodd" xmlns:xlink="http://www.w3.org/1999/xlink">

<!-- material -->
<!-- jacket material -->
<g><path class="jacket_color" style="opacity:1" fill="#3f3338" d="M 124.5,217.5 C 123.833,217.833 123.167,218.167 122.5,218.5C 120.89,214.9 118.89,211.566 116.5,208.5C 123.242,202.254 129.908,195.754 136.5,189C 138.217,187.441 140.217,186.608 142.5,186.5C 143.016,191.229 143.016,195.896 142.5,200.5C 136.468,206.174 130.468,211.84 124.5,217.5 Z"/></g>


<!-- jacket material -->
<g><path class="jacket_color" style="opacity:1" fill="#32262b" d="M 156.5,234.5 C 158.19,238.187 157.69,238.854 155,236.5C 155.438,239.06 155.271,241.56 154.5,244C 155.11,245.947 155.943,247.781 157,249.5C 157.667,246.833 158.333,246.833 159,249.5C 159,251.5 159,253.5 159,255.5C 160.851,255.491 162.685,256.324 164.5,258C 163.756,259.039 162.756,259.539 161.5,259.5C 149.396,248.56 138.063,236.726 127.5,224C 127.978,222.697 128.645,221.531 129.5,220.5C 134.293,216.879 138.96,213.046 143.5,209C 144.167,208.333 144.833,208.333 145.5,209C 148.505,217.869 152.172,226.369 156.5,234.5 Z"/></g>


<!-- jacket material -->
<g><path class="jacket_color" style="opacity:1" fill="#2b1d22" d="M 156.5,234.5 C 162.068,242.747 168.068,250.747 174.5,258.5C 180.934,264.445 187.768,269.778 195,274.5C 194.985,277.57 194.318,280.57 193,283.5C 191.855,284.684 190.688,284.684 189.5,283.5C 182.344,277.519 175.011,271.685 167.5,266C 165.322,263.989 163.322,261.823 161.5,259.5C 162.756,259.539 163.756,259.039 164.5,258C 162.685,256.324 160.851,255.491 159,255.5C 159,253.5 159,251.5 159,249.5C 158.333,246.833 157.667,246.833 157,249.5C 155.943,247.781 155.11,245.947 154.5,244C 155.271,241.56 155.438,239.06 155,236.5C 157.69,238.854 158.19,238.187 156.5,234.5 Z"/></g>


<!--  jacket material -->
<g><path class="jacket_color" style="opacity:1" fill="#5b4c49" d="M 201.5,280.5 C 203.621,279.848 205.621,280.515 207.5,282.5C 204.932,284.673 202.599,287.006 200.5,289.5C 201.16,287.184 201.827,284.851 202.5,282.5C 202.457,281.584 202.124,280.917 201.5,280.5 Z"/></g>

<!-- Jacket material -->
<g><path class="jacket_color" style="opacity:1" fill="#32272d" d="M 325.5,299.5 C 321.796,297.909 317.796,297.076 313.5,297C 306.833,296.333 300.167,296.333 293.5,297C 292.426,297.739 291.759,298.739 291.5,300C 297.287,309.027 300.454,318.861 301,329.5C 295.705,333.648 289.872,336.648 283.5,338.5C 284.173,329.721 280.34,327.055 272,330.5C 270.596,330.491 269.43,329.991 268.5,329C 275.01,323.656 281.01,317.823 286.5,311.5C 287.309,309.929 287.643,308.262 287.5,306.5C 285.576,303.732 283.41,301.065 281,298.5C 280.312,297.668 280.479,297.002 281.5,296.5C 302.153,293.591 321.32,286.591 339,275.5C 339.328,278.207 338.995,280.874 338,283.5C 335.193,288.776 332.693,294.109 330.5,299.5C 328.833,299.5 327.167,299.5 325.5,299.5 Z"/></g>

<!-- top left material jacket -->
<g><path class="jacket_color" style="opacity:1" fill="#322a33" d="M 221.5,287.5 C 221.476,298.991 220.309,310.324 218,321.5C 212.946,314.62 208.113,307.62 203.5,300.5C 203.229,298.62 203.896,297.287 205.5,296.5C 205.639,303.834 209.306,306.167 216.5,303.5C 219.312,298.142 218.646,293.476 214.5,289.5C 214.856,288.13 215.69,287.13 217,286.5C 218.44,287.148 219.94,287.481 221.5,287.5 Z"/></g>

<!--  -->
<g><path style="opacity:1" fill="#faf8f2" d="M 251.5,310.5 C 251.338,320.594 251.838,330.594 253,340.5C 248.599,341.467 244.099,341.8 239.5,341.5C 234.212,340.546 229.045,338.879 224,336.5C 225.242,326.223 226.409,315.89 227.5,305.5C 228.222,305.082 228.722,304.416 229,303.5C 235.409,309.147 242.909,311.48 251.5,310.5 Z"/></g>

<!-- top right button -->
<g><path style="opacity:1" fill="#efce78" d="M 264.5,309.5 C 264.5,308.167 264.5,306.833 264.5,305.5C 266.559,302.851 269.225,302.018 272.5,303C 275.963,308.868 274.296,311.868 267.5,312C 266.627,310.955 265.627,310.122 264.5,309.5 Z"/></g>

<!-- jacket material -->
<g><path class="jacket_color" style="opacity:1" fill="#32262f" d="M 274.5,301.5 C 269.579,299.218 266.246,300.552 264.5,305.5C 264.5,306.833 264.5,308.167 264.5,309.5C 264.511,311.017 265.177,312.184 266.5,313C 268.81,313.497 271.143,313.663 273.5,313.5C 269.134,318.533 264.467,323.2 259.5,327.5C 258.548,325.955 258.215,324.288 258.5,322.5C 258.656,313.825 258.989,305.158 259.5,296.5C 263.514,296.334 267.514,296.501 271.5,297C 272.386,298.615 273.386,300.115 274.5,301.5 Z"/></g>


<!-- top right button sorround -->
<g><path style="opacity:1" fill="#3e2b1d" d="M 274.5,301.5 C 275.289,301.783 275.956,302.283 276.5,303C 275.549,306.057 275.216,309.223 275.5,312.5C 274.833,312.833 274.167,313.167 273.5,313.5C 271.143,313.663 268.81,313.497 266.5,313C 265.177,312.184 264.511,311.017 264.5,309.5C 265.627,310.122 266.627,310.955 267.5,312C 274.296,311.868 275.963,308.868 272.5,303C 269.225,302.018 266.559,302.851 264.5,305.5C 266.246,300.552 269.579,299.218 274.5,301.5 Z"/></g>

<!--  -->
<g><path style="opacity:1" fill="#b57656" d="M 207.5,330.5 C 209.988,332.388 212.988,333.055 216.5,332.5C 216.938,340.612 214.105,342.279 208,337.5C 207.79,335.942 207.29,334.609 206.5,333.5C 206.263,332.209 206.596,331.209 207.5,330.5 Z"/></g>

<!-- left jacket space - making this material -->
<g><path style="opacity:1" fill="#352c2f" d="M 207.5,330.5 C 206.596,331.209 206.263,332.209 206.5,333.5C 206.368,336.797 204.702,338.463 201.5,338.5C 202.294,331.03 203.794,323.697 206,316.5C 207.659,317.817 208.826,319.483 209.5,321.5C 208.358,324.399 207.692,327.399 207.5,330.5 Z"/></g>

<!--  -->
<g><path style="opacity:1" fill="#efa278" d="M 192.5,322.5 C 197.022,324.236 198.688,327.569 197.5,332.5C 194.386,332.445 192.052,331.112 190.5,328.5C 191.458,326.698 192.125,324.698 192.5,322.5 Z"/></g>

<!-- jacket left material color -->
<g><path class="jacket_color" style="opacity:1" fill="#352c2f" d="M 196.5,302.5 C 198.108,306.043 200.442,309.043 203.5,311.5C 201.881,315.178 200.548,318.678 199.5,322C 197.115,322.556 194.782,322.39 192.5,321.5C 194.599,315.338 195.932,309.005 196.5,302.5 Z"/></g>

<!--  -->
<g><path style="opacity:1" fill="#edded9" d="M 196.5,302.5 C 195.932,309.005 194.599,315.338 192.5,321.5C 192.5,321.833 192.5,322.167 192.5,322.5C 192.125,324.698 191.458,326.698 190.5,328.5C 189.418,327.406 188.752,326.073 188.5,324.5C 190.819,316.92 192.819,309.253 194.5,301.5C 195.925,299.969 196.591,300.302 196.5,302.5 Z"/></g>

<!-- top left jacket shade -->
<g><path style="opacity:1" fill="#44372f" d="M 214.5,289.5 C 218.646,293.476 219.312,298.142 216.5,303.5C 209.306,306.167 205.639,303.834 205.5,296.5C 208.208,293.791 211.208,291.458 214.5,289.5 Z"/></g>

<!-- top left jacket button -->
<g><path style="opacity:1" fill="#f5dd93" d="M 209.5,295.5 C 216.004,295.138 217.671,297.638 214.5,303C 207.745,303.756 206.078,301.256 209.5,295.5 Z"/></g>

 <!--  -->
<g><path style="opacity:1" fill="#ede3df" d="M 267.5,350.5 C 266.5,349.833 265.5,349.167 264.5,348.5C 264.608,343.13 264.275,337.797 263.5,332.5C 265.774,331.048 267.274,331.715 268,334.5C 269.081,339.47 269.414,344.47 269,349.5C 268.617,350.056 268.117,350.389 267.5,350.5 Z"/></g>

 <!-- jacket pants -->
<g><path style="opacity:1" fill="#ede9ef" d="M 275.5,342.5 C 276.833,342.5 278.167,342.5 279.5,342.5C 280.244,345.95 278.91,347.616 275.5,347.5C 275.5,345.833 275.5,344.167 275.5,342.5 Z"/></g>


</svg>
