<?xml version="1.0" encoding="UTF-8"?>
<!DOCTYPE svg PUBLIC "-//W3C//DTD SVG 1.1//EN" "http://www.w3.org/Graphics/SVG/1.1/DTD/svg11.dtd">
<svg xmlns="http://www.w3.org/2000/svg" version="1.1" width="500px" height="500px" style="shape-rendering:geometricPrecision; text-rendering:geometricPrecision; image-rendering:optimizeQuality; fill-rule:evenodd; clip-rule:evenodd" xmlns:xlink="http://www.w3.org/1999/xlink">

<!-- face strip -->
<g><path class="kofia_color" style="opacity:1" fill="#f86a37" d="M 304.5,73.5 C 310.457,74.7078 316.124,76.7078 321.5,79.5C 323.883,81.3582 326.55,82.6916 329.5,83.5C 331.147,85.3264 333.147,86.6597 335.5,87.5C 338.141,89.8044 340.808,92.1377 343.5,94.5C 345.458,97.7915 347.791,100.792 350.5,103.5C 353.248,108.666 356.248,113.666 359.5,118.5C 356.225,115.061 352.725,111.728 349,108.5C 348.798,106.744 348.298,105.078 347.5,103.5C 343.619,100.075 340.452,96.0748 338,91.5C 329.568,85.0773 320.235,80.4106 310,77.5C 306.543,76.8576 303.21,77.5243 300,79.5C 293.276,77.9174 286.443,77.0841 279.5,77C 278.027,76.2904 277.36,75.1238 277.5,73.5C 275.799,73.9662 274.299,73.9662 273,73.5C 272.308,74.0253 271.808,74.6919 271.5,75.5C 266.544,76.4941 261.544,76.8275 256.5,76.5C 257.133,81.3518 255.299,83.0185 251,81.5C 248.869,82.5402 247.036,84.0402 245.5,86C 243.722,86.704 241.888,87.204 240,87.5C 238.301,87.6134 237.134,86.9468 236.5,85.5C 239.187,85.6641 241.854,85.4974 244.5,85C 245.823,84.1841 246.489,83.0174 246.5,81.5C 247.147,80.7261 247.48,79.7261 247.5,78.5C 246.599,75.9293 245.266,73.596 243.5,71.5C 246.062,70.3591 248.728,69.5257 251.5,69C 260.167,68.3333 268.833,68.3333 277.5,69C 286.583,70.0931 295.583,71.5931 304.5,73.5 Z"/></g>

<!-- face strip -->
<g><path class="kofia_color" style="opacity:1" fill="#de6c4c" d="M 304.5,73.5 C 295.583,71.5931 286.583,70.0931 277.5,69C 268.833,68.3333 260.167,68.3333 251.5,69C 248.728,69.5257 246.062,70.3591 243.5,71.5C 245.266,73.596 246.599,75.9293 247.5,78.5C 247.48,79.7261 247.147,80.7261 246.5,81.5C 246.489,83.0174 245.823,84.1841 244.5,85C 241.854,85.4974 239.187,85.6641 236.5,85.5C 235.185,84.5244 233.852,83.5244 232.5,82.5C 231.796,85.2046 230.129,86.8713 227.5,87.5C 232.683,80.5434 231.016,76.5434 222.5,75.5C 223.5,74.8333 224.5,74.1667 225.5,73.5C 233.111,71.5141 240.778,69.6807 248.5,68C 254,67.8333 259.5,67.6667 265,67.5C 278.68,66.9761 291.846,68.9761 304.5,73.5 Z"/></g>

<!-- face strip -->
<g><path class="kofia_color" style="opacity:1" fill="#f7632c" d="M 359.5,118.5 C 368.968,133.332 374.301,149.665 375.5,167.5C 375.666,172.844 375.499,178.177 375,183.5C 373.39,183.87 371.89,183.203 370.5,181.5C 369.833,186.985 369.167,192.319 368.5,197.5C 368.666,190.825 368.5,184.158 368,177.5C 366.548,171.38 365.048,165.38 363.5,159.5C 359.358,146.616 352.525,135.283 343,125.5C 335.152,116.816 325.652,110.483 314.5,106.5C 313.5,105.833 312.5,105.167 311.5,104.5C 295.667,103.49 279.667,103.49 263.5,104.5C 251.971,104.288 240.471,103.621 229,102.5C 225.317,102.501 221.817,102.835 218.5,103.5C 212.062,105.885 205.728,108.552 199.5,111.5C 196.06,112.251 193.06,113.918 190.5,116.5C 189.614,115.675 189.281,114.675 189.5,113.5C 188.448,113.649 187.448,113.483 186.5,113C 189.079,111.924 190.746,110.091 191.5,107.5C 195.833,102.833 200.167,98.1667 204.5,93.5C 206.142,92.197 207.809,90.8637 209.5,89.5C 210.265,89.0766 211.098,88.7432 212,88.5C 214.505,90.0229 217.171,91.0229 220,91.5C 221.167,91.3333 222.333,91.1667 223.5,91C 225.319,90.2597 226.652,89.0931 227.5,87.5C 230.129,86.8713 231.796,85.2046 232.5,82.5C 233.852,83.5244 235.185,84.5244 236.5,85.5C 237.134,86.9468 238.301,87.6134 240,87.5C 241.888,87.204 243.722,86.704 245.5,86C 247.036,84.0402 248.869,82.5402 251,81.5C 255.299,83.0185 257.133,81.3518 256.5,76.5C 261.544,76.8275 266.544,76.4941 271.5,75.5C 271.808,74.6919 272.308,74.0253 273,73.5C 274.299,73.9662 275.799,73.9662 277.5,73.5C 277.36,75.1238 278.027,76.2904 279.5,77C 286.443,77.0841 293.276,77.9174 300,79.5C 303.21,77.5243 306.543,76.8576 310,77.5C 320.235,80.4106 329.568,85.0773 338,91.5C 340.452,96.0748 343.619,100.075 347.5,103.5C 348.298,105.078 348.798,106.744 349,108.5C 352.725,111.728 356.225,115.061 359.5,118.5 Z"/></g>

<!-- face strip -->
<g><path class="kofia_color" style="opacity:1" fill="#fdf5eb" d="M 246.5,81.5 C 243.754,84.3054 240.421,85.1387 236.5,84C 232.473,80.6887 232.807,77.6887 237.5,75C 243.19,73.5299 246.19,75.6966 246.5,81.5 Z"/></g>

<!-- face strip -->
<g><path class="kofia_color" style="opacity:1" fill="#df6a47" d="M 227.5,87.5 C 226.652,89.0931 225.319,90.2597 223.5,91C 222.333,91.1667 221.167,91.3333 220,91.5C 217.171,91.0229 214.505,90.0229 212,88.5C 211.098,88.7432 210.265,89.0766 209.5,89.5C 210.412,87.4048 211.579,85.4048 213,83.5C 214.292,85.2487 215.458,87.082 216.5,89C 220.357,89.7585 224.023,89.2585 227.5,87.5 Z"/></g>

<!-- face strip -->
<g><path class="kofia_color" style="opacity:1" fill="#e28663" d="M 204.5,93.5 C 200.167,98.1667 195.833,102.833 191.5,107.5C 190.167,108.5 188.833,109.5 187.5,110.5C 192.167,103.833 197.833,98.1667 204.5,93.5 Z"/></g>


<!-- face strip -->
<g><path class="kofia_color" style="opacity:1" fill="#b84432" d="M 343.5,94.5 C 347.167,97.8333 350.833,101.167 354.5,104.5C 356.914,105.911 358.581,107.911 359.5,110.5C 356.681,107.925 353.681,105.592 350.5,103.5C 347.791,100.792 345.458,97.7915 343.5,94.5 Z"/></g>

<!-- face strip -->
<g><path class="kofia_color" style="opacity:1" fill="#e86f37" d="M 218.5,103.5 C 221.817,102.835 225.317,102.501 229,102.5C 240.471,103.621 251.971,104.288 263.5,104.5C 279.667,103.49 295.667,103.49 311.5,104.5C 296.337,105.192 281.17,105.859 266,106.5C 250.137,105.62 234.304,104.62 218.5,103.5 Z"/></g>

<!-- face strip -->
<g><path class="kofia_color" style="opacity:1" fill="#eb763b" d="M 191.5,107.5 C 190.746,110.091 189.079,111.924 186.5,113C 187.448,113.483 188.448,113.649 189.5,113.5C 189.281,114.675 189.614,115.675 190.5,116.5C 193.06,113.918 196.06,112.251 199.5,111.5C 199.5,111.833 199.5,112.167 199.5,112.5C 195.268,114.4 191.601,117.067 188.5,120.5C 184.229,123.101 180.563,126.434 177.5,130.5C 175.824,129.817 175.157,128.483 175.5,126.5C 178.353,120.313 182.353,114.979 187.5,110.5C 188.833,109.5 190.167,108.5 191.5,107.5 Z"/></g>

<!-- face strip  -->
<g><path class="kofia_color" style="opacity:1" fill="#b43e38" d="M 359.5,110.5 C 365.769,117.38 370.769,125.047 374.5,133.5C 374.5,134.167 374.5,134.833 374.5,135.5C 371.551,131.887 369.051,127.887 367,123.5C 366,122.833 365,122.167 364,121.5C 363.02,117.604 361.52,113.938 359.5,110.5 Z"/></g>

<!-- face strip -->
<g><path class="kofia_color" style="opacity:1" fill="#e18f60" d="M 175.5,126.5 C 175.157,128.483 175.824,129.817 177.5,130.5C 173.76,134.233 170.427,138.233 167.5,142.5C 169.638,136.891 172.304,131.558 175.5,126.5 Z"/></g>

<!-- face strip-->
<g><path class="kofia_color" style="opacity:1" fill="#d73a26" d="M 350.5,103.5 C 353.681,105.592 356.681,107.925 359.5,110.5C 361.52,113.938 363.02,117.604 364,121.5C 365,122.167 366,122.833 367,123.5C 369.051,127.887 371.551,131.887 374.5,135.5C 374.74,138.579 374.407,141.579 373.5,144.5C 380.648,155.999 383.314,168.665 381.5,182.5C 380.732,183.263 380.232,184.263 380,185.5C 379,183.833 378,182.167 377,180.5C 376.825,175.981 376.325,171.647 375.5,167.5C 374.301,149.665 368.968,133.332 359.5,118.5C 356.248,113.666 353.248,108.666 350.5,103.5 Z"/></g>

<!-- face strip -->
<g><path class="kofia_color" style="opacity:1" fill="#e35531" d="M 375.5,167.5 C 376.325,171.647 376.825,175.981 377,180.5C 378,182.167 379,183.833 380,185.5C 380.232,184.263 380.732,183.263 381.5,182.5C 381.121,191.469 379.621,200.135 377,208.5C 375.817,207.269 374.651,207.269 373.5,208.5C 374.76,212.498 374.76,216.498 373.5,220.5C 370.6,219.046 369.267,220.046 369.5,223.5C 366.344,223.471 364.678,221.804 364.5,218.5C 367.091,214.236 368.091,209.569 367.5,204.5C 367.993,202.194 368.326,199.861 368.5,197.5C 369.167,192.319 369.833,186.985 370.5,181.5C 371.89,183.203 373.39,183.87 375,183.5C 375.499,178.177 375.666,172.844 375.5,167.5 Z"/></g>

<!-- face strip -->
<g><path class="kofia_color" style="opacity:1" fill="#cf5039" d="M 374.5,135.5 C 377.442,141.269 379.775,147.269 381.5,153.5C 383.19,166.098 383.857,178.765 383.5,191.5C 381.721,202.426 378.721,213.093 374.5,223.5C 374.167,223.5 373.833,223.5 373.5,223.5C 373.5,222.5 373.5,221.5 373.5,220.5C 374.76,216.498 374.76,212.498 373.5,208.5C 374.651,207.269 375.817,207.269 377,208.5C 379.621,200.135 381.121,191.469 381.5,182.5C 383.314,168.665 380.648,155.999 373.5,144.5C 374.407,141.579 374.74,138.579 374.5,135.5 Z"/></g>

<!-- face strip -->
<g><path class="kofia_color" style="opacity:1" fill="#df915d" d="M 195.5,265.5 C 207.554,268.971 219.554,272.304 231.5,275.5C 227.774,275.177 224.107,275.511 220.5,276.5C 222.188,278.188 223.854,279.854 225.5,281.5C 214.312,278.242 204.312,272.908 195.5,265.5 Z"/></g>

<!-- face strip  -->
<g><path class="kofia_color" style="opacity:1" fill="#e76d40" d="M 367.5,204.5 C 368.091,209.569 367.091,214.236 364.5,218.5C 364.678,221.804 366.344,223.471 369.5,223.5C 369.267,220.046 370.6,219.046 373.5,220.5C 373.5,221.5 373.5,222.5 373.5,223.5C 367.552,237.726 358.885,250.059 347.5,260.5C 342.214,263.788 337.214,267.454 332.5,271.5C 328.22,273.64 323.886,275.807 319.5,278C 315.693,279.881 311.693,281.047 307.5,281.5C 302.167,282.5 296.833,283.5 291.5,284.5C 291.056,282.887 290.056,281.72 288.5,281C 290.21,279.349 291.544,277.516 292.5,275.5C 301.508,272.325 310.508,268.825 319.5,265C 344.704,251.98 360.704,231.814 367.5,204.5 Z"/></g>

<!-- face strip -->
<g><path class="kofia_color" style="opacity:1" fill="#ea7c48" d="M 231.5,275.5 C 244.781,279.161 258.114,280.161 271.5,278.5C 278.549,277.825 285.549,276.825 292.5,275.5C 291.544,277.516 290.21,279.349 288.5,281C 290.056,281.72 291.056,282.887 291.5,284.5C 284.069,286.906 276.402,287.906 268.5,287.5C 257.404,287.237 246.404,286.237 235.5,284.5C 232.059,283.807 228.725,282.807 225.5,281.5C 223.854,279.854 222.188,278.188 220.5,276.5C 224.107,275.511 227.774,275.177 231.5,275.5 Z"/></g>

</svg>
