<?xml version="1.0" encoding="UTF-8"?>
<!DOCTYPE svg PUBLIC "-//W3C//DTD SVG 1.1//EN" "http://www.w3.org/Graphics/SVG/1.1/DTD/svg11.dtd">
<svg xmlns="http://www.w3.org/2000/svg" version="1.1" width="500px" height="500px" style="shape-rendering:geometricPrecision; text-rendering:geometricPrecision; image-rendering:optimizeQuality; fill-rule:evenodd; clip-rule:evenodd" xmlns:xlink="http://www.w3.org/1999/xlink">



 <!-- pants -->
<g><path class="pants_color" style="opacity:1" fill="#21ACC6" d="M 214.5,386.5 C 211.365,389.808 208.365,393.308 205.5,397C 204.271,397.781 202.938,398.281 201.5,398.5C 194.148,395.265 187.481,390.932 181.5,385.5C 180.571,384.311 180.238,382.978 180.5,381.5C 188.483,382.492 195.483,385.658 201.5,391C 203.134,391.494 204.801,391.66 206.5,391.5C 206.66,389.801 206.494,388.134 206,386.5C 202.013,384.009 198.513,381.009 195.5,377.5C 200.169,367.325 205.502,357.491 211.5,348C 210.944,347.617 210.611,347.117 210.5,346.5C 212.353,347.075 214.186,347.409 216,347.5C 217.637,345.885 219.471,344.551 221.5,343.5C 234.522,347.932 247.855,349.265 261.5,347.5C 261.222,349.346 261.889,350.68 263.5,351.5C 264.386,350.675 264.719,349.675 264.5,348.5C 265.5,349.167 266.5,349.833 267.5,350.5C 267.62,351.586 268.287,352.253 269.5,352.5C 273.554,351.897 277.554,351.064 281.5,350C 284.76,344.319 289.76,341.652 296.5,342C 301.328,338.994 305.995,335.827 310.5,332.5C 317.279,337.296 322.279,343.629 325.5,351.5C 321.599,350.932 317.599,350.932 313.5,351.5C 308.888,361.811 300.888,366.478 289.5,365.5C 280.881,364.904 272.881,362.404 265.5,358C 256.833,357.333 248.167,357.333 239.5,358C 229.891,366.438 221.558,375.938 214.5,386.5 Z"/></g>

<g><path class="pants_color" style="opacity:1" fill="#21ACC6" d="M 210.5,346.5 C 210.611,347.117 210.944,347.617 211.5,348C 205.502,357.491 200.169,367.325 195.5,377.5C 194.351,377.209 193.684,376.376 193.5,375C 193.667,374.167 193.833,373.333 194,372.5C 197.318,363.206 201.152,354.206 205.5,345.5C 207.216,345.629 208.883,345.962 210.5,346.5 Z"/></g>


</svg>
