<?xml version="1.0" encoding="UTF-8"?>
<!DOCTYPE svg PUBLIC "-//W3C//DTD SVG 1.1//EN" "http://www.w3.org/Graphics/SVG/1.1/DTD/svg11.dtd">
<svg xmlns="http://www.w3.org/2000/svg" version="1.1" width="500px" height="500px" style="shape-rendering:geometricPrecision; text-rendering:geometricPrecision; image-rendering:optimizeQuality; fill-rule:evenodd; clip-rule:evenodd" xmlns:xlink="http://www.w3.org/1999/xlink">

<!-- charcter border         -->
<g><path style="opacity:1" fill="#1f0b10" d="M 343.5,83.5 C 348.805,88.6342 354.305,93.6342 360,98.5C 368.51,108.684 375.843,119.684 382,131.5C 383.674,135.021 384.84,138.687 385.5,142.5C 384.883,142.611 384.383,142.944 384,143.5C 382.628,140.274 381.462,136.941 380.5,133.5C 379.675,132.614 378.675,132.281 377.5,132.5C 377.938,129.107 377.105,126.107 375,123.5C 373.372,124.097 371.705,123.763 370,122.5C 367.271,118.612 364.771,114.612 362.5,110.5C 363.124,107.676 362.457,105.009 360.5,102.5C 358.367,100.909 356.701,98.9095 355.5,96.5C 354.264,95.7542 352.93,95.4208 351.5,95.5C 351.67,94.1779 351.337,93.0113 350.5,92C 346.73,90.6995 343.563,88.5328 341,85.5C 339.699,85.9602 338.366,86.2935 337,86.5C 334.778,84.8057 332.278,83.8057 329.5,83.5C 326.55,82.6916 323.883,81.3582 321.5,79.5C 321.196,78.8501 320.863,78.1835 320.5,77.5C 311.346,73.9613 312.012,72.4613 322.5,73C 323.701,73.9025 324.535,75.0692 325,76.5C 327.444,75.3057 329.611,75.8057 331.5,78C 333.833,78.6667 336.167,78.6667 338.5,78C 343.086,74.942 345.753,70.7753 346.5,65.5C 347.622,63.7116 347.789,61.7116 347,59.5C 344.308,57.7883 343.974,55.7883 346,53.5C 346.821,46.6536 346.654,39.987 345.5,33.5C 345.672,32.5084 345.338,31.8417 344.5,31.5C 343.726,30.8529 342.726,30.5195 341.5,30.5C 339.091,31.0636 336.758,31.8969 334.5,33C 329.316,33.1739 324.316,33.6739 319.5,34.5C 319.167,34.5 318.833,34.5 318.5,34.5C 295.11,27.8544 280.443,36.1877 274.5,59.5C 275.5,59.5 276.5,59.5 277.5,59.5C 277.611,60.1174 277.944,60.6174 278.5,61C 286.855,62.1316 295.188,63.2982 303.5,64.5C 307.395,65.4624 311.061,66.7957 314.5,68.5C 314.5,69.5 314.5,70.5 314.5,71.5C 311.859,72.2631 309.192,72.4298 306.5,72C 304.608,71.0266 302.608,70.3599 300.5,70C 301.167,69.3333 301.833,68.6667 302.5,68C 299.167,67.6667 295.833,67.3333 292.5,67C 275.666,67.1337 258.999,66.3004 242.5,64.5C 240.167,65.8333 237.833,65.8333 235.5,64.5C 234.18,66.6507 232.68,68.6507 231,70.5C 229.812,69.4366 229.312,68.1033 229.5,66.5C 228.5,66.5 227.5,66.5 226.5,66.5C 230.456,64.2509 234.789,62.7509 239.5,62C 248.453,60.4558 257.453,59.2892 266.5,58.5C 270.675,37.6571 283.342,26.3238 304.5,24.5C 314.05,26.8449 323.717,27.6782 333.5,27C 337.386,24.8901 341.386,23.0567 345.5,21.5C 349.6,23.1049 352.1,26.1049 353,30.5C 353.778,37.3712 353.612,44.2046 352.5,51C 354.922,52.649 355.922,54.9823 355.5,58C 355.193,62.7265 354.027,67.2265 352,71.5C 349.336,75.6569 346.503,79.6569 343.5,83.5 Z"/></g>

<!-- top pointy -->
<g><path class='comb_color' style="opacity:1" fill="#f13637" d="M 343.5,51.5 C 342.383,55.7338 340.716,59.7338 338.5,63.5C 336.832,64.8438 335.165,66.1771 333.5,67.5C 328.544,68.394 323.544,68.7274 318.5,68.5C 315.785,66.9281 312.785,65.9281 309.5,65.5C 309.328,63.5082 309.995,61.8415 311.5,60.5C 307.872,59.5368 304.205,59.5368 300.5,60.5C 294.175,59.6861 287.842,59.0194 281.5,58.5C 281.34,56.8008 281.506,55.1341 282,53.5C 284.1,50.9493 285.933,48.2827 287.5,45.5C 292.486,45.1703 296.153,42.837 298.5,38.5C 299.795,37.9017 301.128,37.4017 302.5,37C 308.348,36.8272 314.015,36.3272 319.5,35.5C 323.833,35.5 328.167,35.5 332.5,35.5C 335.765,35.7918 338.765,35.1251 341.5,33.5C 342.442,33.6082 343.275,33.9415 344,34.5C 344.626,40.1949 344.459,45.8615 343.5,51.5 Z"/></g>

<!-- top pointy -->
<g><path class='comb_color' style="opacity:1" fill="#f08c7e" d="M 318.5,34.5 C 318.833,34.5 319.167,34.5 319.5,34.5C 319.5,34.8333 319.5,35.1667 319.5,35.5C 314.015,36.3272 308.348,36.8272 302.5,37C 301.128,37.4017 299.795,37.9017 298.5,38.5C 296.153,42.837 292.486,45.1703 287.5,45.5C 290.604,42.8991 293.604,40.0657 296.5,37C 303.935,35.9409 311.268,35.1076 318.5,34.5 Z"/></g>


<!--  -->
<g><path style="opacity:1" fill="#f9f3ef" d="M 318.5,34.5 C 311.268,35.1076 303.935,35.9409 296.5,37C 293.604,40.0657 290.604,42.8991 287.5,45.5C 282.889,49.1149 279.889,53.7816 278.5,59.5C 278.167,59.5 277.833,59.5 277.5,59.5C 276.5,59.5 275.5,59.5 274.5,59.5C 280.443,36.1877 295.11,27.8544 318.5,34.5 Z"/></g>

<!-- top pointy -->
<g><path class='comb_color' style="opacity:1" fill="#b2393c" d="M 344.5,31.5 C 345.338,31.8417 345.672,32.5084 345.5,33.5C 345.666,38.5111 345.499,43.5111 345,48.5C 344.768,49.7375 344.268,50.7375 343.5,51.5C 344.459,45.8615 344.626,40.1949 344,34.5C 343.275,33.9415 342.442,33.6082 341.5,33.5C 338.765,35.1251 335.765,35.7918 332.5,35.5C 336.233,33.589 340.233,32.2556 344.5,31.5 Z"/></g>


<!-- top pointy -->
<g><path class='comb_color' style="opacity:1" fill="#44060c" d="M 344.5,31.5 C 340.233,32.2556 336.233,33.589 332.5,35.5C 328.167,35.5 323.833,35.5 319.5,35.5C 319.5,35.1667 319.5,34.8333 319.5,34.5C 324.316,33.6739 329.316,33.1739 334.5,33C 336.758,31.8969 339.091,31.0636 341.5,30.5C 342.726,30.5195 343.726,30.8529 344.5,31.5 Z"/></g>

<!-- top pointy -->
<g><path class='comb_color' style="opacity:1" fill="#3b0509" d="M 345.5,33.5 C 346.654,39.987 346.821,46.6536 346,53.5C 343.974,55.7883 344.308,57.7883 347,59.5C 347.789,61.7116 347.622,63.7116 346.5,65.5C 346.53,64.5028 346.03,63.8361 345,63.5C 343.78,64.3881 342.447,65.0548 341,65.5C 339.624,65.3158 338.791,64.6491 338.5,63.5C 340.716,59.7338 342.383,55.7338 343.5,51.5C 344.268,50.7375 344.768,49.7375 345,48.5C 345.499,43.5111 345.666,38.5111 345.5,33.5 Z"/></g>


<!-- top pointy -->
<g><path class='comb_color' style="opacity:1" fill="#d43c3f" d="M 287.5,45.5 C 285.933,48.2827 284.1,50.9493 282,53.5C 281.506,55.1341 281.34,56.8008 281.5,58.5C 287.842,59.0194 294.175,59.6861 300.5,60.5C 304.205,59.5368 307.872,59.5368 311.5,60.5C 309.995,61.8415 309.328,63.5082 309.5,65.5C 312.785,65.9281 315.785,66.9281 318.5,68.5C 318.5,68.8333 318.5,69.1667 318.5,69.5C 317.167,69.1667 315.833,68.8333 314.5,68.5C 311.061,66.7957 307.395,65.4624 303.5,64.5C 295.407,62.1065 287.073,60.4398 278.5,59.5C 279.889,53.7816 282.889,49.1149 287.5,45.5 Z"/></g>

<!-- top pointy -->
<g><path class='comb_color' style="opacity:1" fill="#380204" d="M 277.5,59.5 C 277.833,59.5 278.167,59.5 278.5,59.5C 287.073,60.4398 295.407,62.1065 303.5,64.5C 295.188,63.2982 286.855,62.1316 278.5,61C 277.944,60.6174 277.611,60.1174 277.5,59.5 Z"/></g>

<!-- character border -->
<g><path style="opacity:1" fill="#32070b" d="M 314.5,68.5 C 315.833,68.8333 317.167,69.1667 318.5,69.5C 324.308,72.2672 330.141,74.9338 336,77.5C 340.785,74.5529 344.285,70.5529 346.5,65.5C 345.753,70.7753 343.086,74.942 338.5,78C 336.167,78.6667 333.833,78.6667 331.5,78C 329.611,75.8057 327.444,75.3057 325,76.5C 324.535,75.0692 323.701,73.9025 322.5,73C 312.012,72.4613 311.346,73.9613 320.5,77.5C 320.863,78.1835 321.196,78.8501 321.5,79.5C 316.124,76.7078 310.457,74.7078 304.5,73.5C 291.846,68.9761 278.68,66.9761 265,67.5C 259.5,67.6667 254,67.8333 248.5,68C 240.778,69.6807 233.111,71.5141 225.5,73.5C 225.773,71.549 225.107,70.049 223.5,69C 224.381,68.2917 225.047,67.4584 225.5,66.5C 225.833,66.5 226.167,66.5 226.5,66.5C 227.5,66.5 228.5,66.5 229.5,66.5C 229.312,68.1033 229.812,69.4366 231,70.5C 232.68,68.6507 234.18,66.6507 235.5,64.5C 237.833,65.8333 240.167,65.8333 242.5,64.5C 258.999,66.3004 275.666,67.1337 292.5,67C 295.833,67.3333 299.167,67.6667 302.5,68C 301.833,68.6667 301.167,69.3333 300.5,70C 302.608,70.3599 304.608,71.0266 306.5,72C 309.192,72.4298 311.859,72.2631 314.5,71.5C 314.5,70.5 314.5,69.5 314.5,68.5 Z"/></g>


<!-- face strip -->
<g><path style="opacity:1" fill="#f86a37" d="M 304.5,73.5 C 310.457,74.7078 316.124,76.7078 321.5,79.5C 323.883,81.3582 326.55,82.6916 329.5,83.5C 331.147,85.3264 333.147,86.6597 335.5,87.5C 338.141,89.8044 340.808,92.1377 343.5,94.5C 345.458,97.7915 347.791,100.792 350.5,103.5C 353.248,108.666 356.248,113.666 359.5,118.5C 356.225,115.061 352.725,111.728 349,108.5C 348.798,106.744 348.298,105.078 347.5,103.5C 343.619,100.075 340.452,96.0748 338,91.5C 329.568,85.0773 320.235,80.4106 310,77.5C 306.543,76.8576 303.21,77.5243 300,79.5C 293.276,77.9174 286.443,77.0841 279.5,77C 278.027,76.2904 277.36,75.1238 277.5,73.5C 275.799,73.9662 274.299,73.9662 273,73.5C 272.308,74.0253 271.808,74.6919 271.5,75.5C 266.544,76.4941 261.544,76.8275 256.5,76.5C 257.133,81.3518 255.299,83.0185 251,81.5C 248.869,82.5402 247.036,84.0402 245.5,86C 243.722,86.704 241.888,87.204 240,87.5C 238.301,87.6134 237.134,86.9468 236.5,85.5C 239.187,85.6641 241.854,85.4974 244.5,85C 245.823,84.1841 246.489,83.0174 246.5,81.5C 247.147,80.7261 247.48,79.7261 247.5,78.5C 246.599,75.9293 245.266,73.596 243.5,71.5C 246.062,70.3591 248.728,69.5257 251.5,69C 260.167,68.3333 268.833,68.3333 277.5,69C 286.583,70.0931 295.583,71.5931 304.5,73.5 Z"/></g>

<!-- top pointy -->
<g><path class="comb_color" style="opacity:1" fill="#be182b" d="M 338.5,63.5 C 338.791,64.6491 339.624,65.3158 341,65.5C 342.447,65.0548 343.78,64.3881 345,63.5C 346.03,63.8361 346.53,64.5028 346.5,65.5C 344.285,70.5529 340.785,74.5529 336,77.5C 330.141,74.9338 324.308,72.2672 318.5,69.5C 318.5,69.1667 318.5,68.8333 318.5,68.5C 323.544,68.7274 328.544,68.394 333.5,67.5C 335.165,66.1771 336.832,64.8438 338.5,63.5 Z"/></g>

<!-- face strip -->
<g><path style="opacity:1" fill="#de6c4c" d="M 304.5,73.5 C 295.583,71.5931 286.583,70.0931 277.5,69C 268.833,68.3333 260.167,68.3333 251.5,69C 248.728,69.5257 246.062,70.3591 243.5,71.5C 245.266,73.596 246.599,75.9293 247.5,78.5C 247.48,79.7261 247.147,80.7261 246.5,81.5C 246.489,83.0174 245.823,84.1841 244.5,85C 241.854,85.4974 239.187,85.6641 236.5,85.5C 235.185,84.5244 233.852,83.5244 232.5,82.5C 231.796,85.2046 230.129,86.8713 227.5,87.5C 232.683,80.5434 231.016,76.5434 222.5,75.5C 223.5,74.8333 224.5,74.1667 225.5,73.5C 233.111,71.5141 240.778,69.6807 248.5,68C 254,67.8333 259.5,67.6667 265,67.5C 278.68,66.9761 291.846,68.9761 304.5,73.5 Z"/></g>

<!-- face strip -->
<g><path style="opacity:1" fill="#f7632c" d="M 359.5,118.5 C 368.968,133.332 374.301,149.665 375.5,167.5C 375.666,172.844 375.499,178.177 375,183.5C 373.39,183.87 371.89,183.203 370.5,181.5C 369.833,186.985 369.167,192.319 368.5,197.5C 368.666,190.825 368.5,184.158 368,177.5C 366.548,171.38 365.048,165.38 363.5,159.5C 359.358,146.616 352.525,135.283 343,125.5C 335.152,116.816 325.652,110.483 314.5,106.5C 313.5,105.833 312.5,105.167 311.5,104.5C 295.667,103.49 279.667,103.49 263.5,104.5C 251.971,104.288 240.471,103.621 229,102.5C 225.317,102.501 221.817,102.835 218.5,103.5C 212.062,105.885 205.728,108.552 199.5,111.5C 196.06,112.251 193.06,113.918 190.5,116.5C 189.614,115.675 189.281,114.675 189.5,113.5C 188.448,113.649 187.448,113.483 186.5,113C 189.079,111.924 190.746,110.091 191.5,107.5C 195.833,102.833 200.167,98.1667 204.5,93.5C 206.142,92.197 207.809,90.8637 209.5,89.5C 210.265,89.0766 211.098,88.7432 212,88.5C 214.505,90.0229 217.171,91.0229 220,91.5C 221.167,91.3333 222.333,91.1667 223.5,91C 225.319,90.2597 226.652,89.0931 227.5,87.5C 230.129,86.8713 231.796,85.2046 232.5,82.5C 233.852,83.5244 235.185,84.5244 236.5,85.5C 237.134,86.9468 238.301,87.6134 240,87.5C 241.888,87.204 243.722,86.704 245.5,86C 247.036,84.0402 248.869,82.5402 251,81.5C 255.299,83.0185 257.133,81.3518 256.5,76.5C 261.544,76.8275 266.544,76.4941 271.5,75.5C 271.808,74.6919 272.308,74.0253 273,73.5C 274.299,73.9662 275.799,73.9662 277.5,73.5C 277.36,75.1238 278.027,76.2904 279.5,77C 286.443,77.0841 293.276,77.9174 300,79.5C 303.21,77.5243 306.543,76.8576 310,77.5C 320.235,80.4106 329.568,85.0773 338,91.5C 340.452,96.0748 343.619,100.075 347.5,103.5C 348.298,105.078 348.798,106.744 349,108.5C 352.725,111.728 356.225,115.061 359.5,118.5 Z"/></g>

<!-- face strip -->
<g><path style="opacity:1" fill="#fdf5eb" d="M 246.5,81.5 C 243.754,84.3054 240.421,85.1387 236.5,84C 232.473,80.6887 232.807,77.6887 237.5,75C 243.19,73.5299 246.19,75.6966 246.5,81.5 Z"/></g>

<!-- face strip -->
<g><path style="opacity:1" fill="#df6a47" d="M 227.5,87.5 C 226.652,89.0931 225.319,90.2597 223.5,91C 222.333,91.1667 221.167,91.3333 220,91.5C 217.171,91.0229 214.505,90.0229 212,88.5C 211.098,88.7432 210.265,89.0766 209.5,89.5C 210.412,87.4048 211.579,85.4048 213,83.5C 214.292,85.2487 215.458,87.082 216.5,89C 220.357,89.7585 224.023,89.2585 227.5,87.5 Z"/></g>

<!-- character border -->
<g><path style="opacity:1" fill="#540b0a" d="M 335.5,87.5 C 343.333,91.3246 349.666,96.9913 354.5,104.5C 350.833,101.167 347.167,97.8333 343.5,94.5C 340.808,92.1377 338.141,89.8044 335.5,87.5 Z"/></g>

<!-- face strip -->
<g><path style="opacity:1" fill="#e28663" d="M 204.5,93.5 C 200.167,98.1667 195.833,102.833 191.5,107.5C 190.167,108.5 188.833,109.5 187.5,110.5C 192.167,103.833 197.833,98.1667 204.5,93.5 Z"/></g>

<!-- face strip -->
<g><path style="opacity:1" fill="#1e0d10" d="M 225.5,66.5 C 225.047,67.4584 224.381,68.2917 223.5,69C 225.107,70.049 225.773,71.549 225.5,73.5C 224.5,74.1667 223.5,74.8333 222.5,75.5C 185.08,92.3025 161.247,120.636 151,160.5C 147.742,180.372 149.575,199.706 156.5,218.5C 155.504,218.586 154.671,218.252 154,217.5C 151.874,210.54 149.874,203.54 148,196.5C 148.23,189.529 148.397,182.529 148.5,175.5C 147.5,175.5 146.5,175.5 145.5,175.5C 144.631,170.791 144.631,166.124 145.5,161.5C 144.023,156.937 141.023,153.937 136.5,152.5C 135.833,152.833 135.167,153.167 134.5,153.5C 135.127,154.417 135.461,155.417 135.5,156.5C 133.5,156.5 131.5,156.5 129.5,156.5C 130.665,154.11 129.998,152.11 127.5,150.5C 126.195,147.947 125.195,145.28 124.5,142.5C 122.639,141.472 121.305,139.972 120.5,138C 119.234,137.691 118.067,137.191 117,136.5C 116.667,136.833 116.333,137.167 116,137.5C 115.517,136.552 115.351,135.552 115.5,134.5C 109.996,134.15 104.663,134.817 99.5,136.5C 109.067,126.554 117.567,127.554 125,139.5C 126.608,142.382 127.941,145.382 129,148.5C 129.671,149.252 130.504,149.586 131.5,149.5C 136.894,150.114 141.394,152.447 145,156.5C 149.174,141.678 155.174,127.678 163,114.5C 168.738,107.606 174.238,100.606 179.5,93.5C 192.655,80.9176 207.989,71.9176 225.5,66.5 Z"/></g>

<!-- face strip -->
<g><path style="opacity:1" fill="#b84432" d="M 343.5,94.5 C 347.167,97.8333 350.833,101.167 354.5,104.5C 356.914,105.911 358.581,107.911 359.5,110.5C 356.681,107.925 353.681,105.592 350.5,103.5C 347.791,100.792 345.458,97.7915 343.5,94.5 Z"/></g>

<!-- face strip -->
<g><path class="body_color" style="opacity:1" fill="#e86f37" d="M 218.5,103.5 C 221.817,102.835 225.317,102.501 229,102.5C 240.471,103.621 251.971,104.288 263.5,104.5C 279.667,103.49 295.667,103.49 311.5,104.5C 296.337,105.192 281.17,105.859 266,106.5C 250.137,105.62 234.304,104.62 218.5,103.5 Z"/></g>

<!-- shade -->
<g><path style="opacity:1" fill="#fec583" d="M 218.5,103.5 C 234.304,104.62 250.137,105.62 266,106.5C 281.17,105.859 296.337,105.192 311.5,104.5C 312.5,105.167 313.5,105.833 314.5,106.5C 290.488,107.501 266.488,107.501 242.5,106.5C 235.671,108.755 229.005,108.755 222.5,106.5C 217.4,107.252 212.4,108.419 207.5,110C 207.36,111.264 207.36,112.431 207.5,113.5C 205.09,111.232 202.423,110.899 199.5,112.5C 199.5,112.167 199.5,111.833 199.5,111.5C 205.728,108.552 212.062,105.885 218.5,103.5 Z"/></g>

<!-- face -->
<g><path class="body_color"  style="opacity:1" fill="#fdd497" d="M 314.5,106.5 C 325.652,110.483 335.152,116.816 343,125.5C 352.525,135.283 359.358,146.616 363.5,159.5C 363.698,164.401 363.698,169.567 363.5,175C 363.594,177.954 364.094,178.121 365,175.5C 367.519,188.704 366.686,201.704 362.5,214.5C 361.83,212.709 361.163,211.042 360.5,209.5C 360.507,203.845 358.174,199.511 353.5,196.5C 352.833,196.167 352.167,195.833 351.5,195.5C 350.251,193.864 348.584,192.697 346.5,192C 334.678,189.202 326.011,193.036 320.5,203.5C 319.883,203.389 319.383,203.056 319,202.5C 318.828,206.871 318.328,211.204 317.5,215.5C 315.883,215.331 314.216,214.997 312.5,214.5C 311.691,212.929 311.357,211.262 311.5,209.5C 308.881,209.768 306.381,209.435 304,208.5C 303.333,203.833 303.333,199.167 304,194.5C 304.465,193.069 305.299,191.903 306.5,191C 304.863,189.049 303.363,189.216 302,191.5C 301.502,194.817 301.335,198.15 301.5,201.5C 300.178,201.67 299.011,201.337 298,200.5C 296.587,197.369 296.087,194.369 296.5,191.5C 295.833,194.5 295.167,197.5 294.5,200.5C 293.473,199.209 292.473,199.209 291.5,200.5C 291.666,194.824 291.499,189.157 291,183.5C 289.471,182.271 288.304,180.771 287.5,179C 270.84,179.572 254.173,179.572 237.5,179C 234.09,186.579 233.59,194.412 236,202.5C 236.902,204.431 238.069,206.097 239.5,207.5C 246.777,218.973 257.111,223.639 270.5,221.5C 261.027,225.267 252.361,223.6 244.5,216.5C 243.201,217.09 242.368,218.09 242,219.5C 238.326,215.493 234.659,211.493 231,207.5C 229.084,209.209 226.918,210.543 224.5,211.5C 223.548,213.045 223.215,214.712 223.5,216.5C 218.864,217.149 214.198,217.649 209.5,218C 208.584,218.374 207.75,218.874 207,219.5C 206.593,214.06 205.426,209.06 203.5,204.5C 203.291,203.078 202.791,201.745 202,200.5C 199.628,198.297 197.461,195.963 195.5,193.5C 194.993,192.141 193.993,191.141 192.5,190.5C 193.025,189.808 193.692,189.308 194.5,189C 193.619,188.292 192.953,187.458 192.5,186.5C 194.394,187.048 196.06,188.048 197.5,189.5C 203.085,189.209 208.752,189.209 214.5,189.5C 214.5,188.5 214.5,187.5 214.5,186.5C 216.827,186.335 218.993,185.669 221,184.5C 222.816,181.442 224.816,178.442 227,175.5C 229.46,164.73 226.96,155.397 219.5,147.5C 217.925,146.544 216.258,145.877 214.5,145.5C 198.012,140.91 187.679,146.91 183.5,163.5C 182.518,166.962 182.185,170.629 182.5,174.5C 181.476,167.179 181.476,159.846 182.5,152.5C 183.655,151.05 185.155,150.05 187,149.5C 187.585,147.871 188.419,146.371 189.5,145C 189.167,144.5 188.833,144 188.5,143.5C 186.291,144.92 184.291,146.587 182.5,148.5C 181.559,143.501 179.559,139.001 176.5,135C 178.096,131.952 180.263,129.452 183,127.5C 184.83,129.158 186.164,131.158 187,133.5C 187.295,129.295 187.795,124.962 188.5,120.5C 191.601,117.067 195.268,114.4 199.5,112.5C 202.423,110.899 205.09,111.232 207.5,113.5C 207.36,112.431 207.36,111.264 207.5,110C 212.4,108.419 217.4,107.252 222.5,106.5C 229.005,108.755 235.671,108.755 242.5,106.5C 266.488,107.501 290.488,107.501 314.5,106.5 Z"/></g>

<!-- face strip -->
<g><path style="opacity:1" fill="#eb763b" d="M 191.5,107.5 C 190.746,110.091 189.079,111.924 186.5,113C 187.448,113.483 188.448,113.649 189.5,113.5C 189.281,114.675 189.614,115.675 190.5,116.5C 193.06,113.918 196.06,112.251 199.5,111.5C 199.5,111.833 199.5,112.167 199.5,112.5C 195.268,114.4 191.601,117.067 188.5,120.5C 184.229,123.101 180.563,126.434 177.5,130.5C 175.824,129.817 175.157,128.483 175.5,126.5C 178.353,120.313 182.353,114.979 187.5,110.5C 188.833,109.5 190.167,108.5 191.5,107.5 Z"/></g>

<!-- right eye brow -->
<g><path style="opacity:1" fill="#24090c" d="M 311.5,116.5 C 321.233,115.68 329.066,119.013 335,126.5C 336.833,132.667 334.667,134.833 328.5,133C 322.964,127.597 316.298,124.931 308.5,125C 307.424,123.274 307.257,121.441 308,119.5C 309.518,118.837 310.685,117.837 311.5,116.5 Z"/></g>

<!--  -->
<g><path style="opacity:1" fill="#f7f5ec" d="M 179.5,93.5 C 174.238,100.606 168.738,107.606 163,114.5C 155.174,127.678 149.174,141.678 145,156.5C 141.394,152.447 136.894,150.114 131.5,149.5C 143.772,127.612 159.772,108.945 179.5,93.5 Z"/></g>


<!-- left eye brow -->
<g><path style="opacity:1" fill="#250c0d" d="M 203.5,116.5 C 207.605,116.234 211.605,116.734 215.5,118C 218.265,120.966 217.932,123.633 214.5,126C 207.392,125.557 201.392,127.89 196.5,133C 189.751,134.517 187.751,132.017 190.5,125.5C 194.599,122.052 198.932,119.052 203.5,116.5 Z"/></g>

<!-- face strip  -->
<g><path style="opacity:1" fill="#b43e38" d="M 359.5,110.5 C 365.769,117.38 370.769,125.047 374.5,133.5C 374.5,134.167 374.5,134.833 374.5,135.5C 371.551,131.887 369.051,127.887 367,123.5C 366,122.833 365,122.167 364,121.5C 363.02,117.604 361.52,113.938 359.5,110.5 Z"/></g>

<!-- face strip -->
<g><path style="opacity:1" fill="#e18f60" d="M 175.5,126.5 C 175.157,128.483 175.824,129.817 177.5,130.5C 173.76,134.233 170.427,138.233 167.5,142.5C 169.638,136.891 172.304,131.558 175.5,126.5 Z"/></g>

<!-- face strip-->
<g><path style="opacity:1" fill="#d73a26" d="M 350.5,103.5 C 353.681,105.592 356.681,107.925 359.5,110.5C 361.52,113.938 363.02,117.604 364,121.5C 365,122.167 366,122.833 367,123.5C 369.051,127.887 371.551,131.887 374.5,135.5C 374.74,138.579 374.407,141.579 373.5,144.5C 380.648,155.999 383.314,168.665 381.5,182.5C 380.732,183.263 380.232,184.263 380,185.5C 379,183.833 378,182.167 377,180.5C 376.825,175.981 376.325,171.647 375.5,167.5C 374.301,149.665 368.968,133.332 359.5,118.5C 356.248,113.666 353.248,108.666 350.5,103.5 Z"/></g>

<!-- character border -->
<g><path style="opacity:1" fill="#370303" d="M 374.5,133.5 C 376.433,134.642 377.933,136.308 379,138.5C 380.673,143.363 381.506,148.363 381.5,153.5C 379.775,147.269 377.442,141.269 374.5,135.5C 374.5,134.833 374.5,134.167 374.5,133.5 Z"/></g>



<g><path style="opacity:1" fill="#f9f7f3" d="M 222.5,75.5 C 231.016,76.5434 232.683,80.5434 227.5,87.5C 224.023,89.2585 220.357,89.7585 216.5,89C 215.458,87.082 214.292,85.2487 213,83.5C 211.579,85.4048 210.412,87.4048 209.5,89.5C 207.809,90.8637 206.142,92.197 204.5,93.5C 197.833,98.1667 192.167,103.833 187.5,110.5C 182.353,114.979 178.353,120.313 175.5,126.5C 172.304,131.558 169.638,136.891 167.5,142.5C 165.416,145.053 164.083,148.053 163.5,151.5C 159.859,158.269 157.692,165.602 157,173.5C 156.333,184.833 156.333,196.167 157,207.5C 159.611,215.327 163.111,222.66 167.5,229.5C 169.002,233.692 171.002,237.692 173.5,241.5C 173.043,242.298 172.376,242.631 171.5,242.5C 165.499,235.173 160.499,227.173 156.5,218.5C 149.575,199.706 147.742,180.372 151,160.5C 161.247,120.636 185.08,92.3025 222.5,75.5 Z"/></g>

<!--  -->
<g><path style="opacity:1" fill="#fbf8ee" d="M 343.5,83.5 C 356.538,90.3529 368.038,99.3529 378,110.5C 400.131,135.423 415.464,164.09 424,196.5C 425.444,203.77 426.277,211.104 426.5,218.5C 425.778,218.918 425.278,219.584 425,220.5C 423.24,215.032 423.073,209.532 424.5,204C 422.167,202.757 421.5,201.091 422.5,199C 421.02,196.441 419.687,193.774 418.5,191C 418.939,182.95 416.773,175.45 412,168.5C 411.316,167.216 411.483,166.049 412.5,165C 411.551,164.383 410.718,164.549 410,165.5C 409.518,160.248 407.185,156.914 403,155.5C 402.667,154.167 402.333,152.833 402,151.5C 401.667,153.5 401.333,155.5 401,157.5C 399.217,154.108 399.051,150.608 400.5,147C 398.121,144.616 395.287,143.116 392,142.5C 391.259,139.438 391.425,136.438 392.5,133.5C 391.658,130.262 389.658,128.762 386.5,129C 389.044,130.563 389.044,132.063 386.5,133.5C 388.659,136.176 390.159,139.509 391,143.5C 391.72,145.112 391.554,146.612 390.5,148C 392.286,148.785 393.786,149.951 395,151.5C 395.164,156.179 395.164,160.845 395,165.5C 395.308,166.308 395.808,166.975 396.5,167.5C 397.429,166.311 397.762,164.978 397.5,163.5C 398.833,163.5 400.167,163.5 401.5,163.5C 401.215,167.025 401.881,170.358 403.5,173.5C 399.978,184.507 398.645,195.84 399.5,207.5C 393.094,207.072 392.094,209.072 396.5,213.5C 397.167,212.833 397.833,212.167 398.5,211.5C 403.116,213.782 406.783,217.116 409.5,221.5C 409.081,222.672 408.415,223.672 407.5,224.5C 409.42,227.339 411.087,230.339 412.5,233.5C 413.777,236.034 413.777,238.534 412.5,241C 414.891,242.309 414.891,243.309 412.5,244C 413.328,244.915 414.328,245.581 415.5,246C 412.918,248.958 412.918,251.958 415.5,255C 413.527,255.495 411.527,255.662 409.5,255.5C 409.5,262.167 406.167,265.5 399.5,265.5C 399.5,272.833 399.5,280.167 399.5,287.5C 397.5,287.5 395.5,287.5 393.5,287.5C 393.5,290.167 393.5,292.833 393.5,295.5C 392.167,295.5 390.833,295.5 389.5,295.5C 390.364,300.734 390.364,306.067 389.5,311.5C 387.092,312.201 384.758,313.201 382.5,314.5C 380.737,317.305 379.07,320.138 377.5,323C 375.871,323.585 374.371,324.419 373,325.5C 372.098,325.257 371.265,324.923 370.5,324.5C 387.358,308.723 387.692,292.556 371.5,276C 364.615,273.4 358.615,269.567 353.5,264.5C 359.941,259.398 365.274,253.398 369.5,246.5C 390.566,214.38 395.899,179.714 385.5,142.5C 384.84,138.687 383.674,135.021 382,131.5C 375.843,119.684 368.51,108.684 360,98.5C 354.305,93.6342 348.805,88.6342 343.5,83.5 Z"/></g>

<!-- character border -->
<g><path style="opacity:1" fill="#260c0e" d="M 129.5,156.5 C 126.787,158.214 124.787,160.547 123.5,163.5C 122.21,164.058 121.377,165.058 121,166.5C 122.353,174.996 119.187,177.663 111.5,174.5C 112.063,165.579 115.73,158.412 122.5,153C 121.86,150.88 120.86,149.046 119.5,147.5C 118.147,143.968 116.147,140.801 113.5,138C 108.647,136.87 106.147,138.704 106,143.5C 108.912,148.158 111.412,152.991 113.5,158C 112.325,161.337 110.159,162.171 107,160.5C 103.783,154.563 99.9493,149.063 95.5,144C 90.7038,144.147 88.8704,146.647 90,151.5C 92.5573,156.723 95.8906,161.39 100,165.5C 100.825,169.336 99.3254,170.836 95.5,170C 92.5677,166.395 89.0677,163.561 85,161.5C 79.016,164.101 78.016,168.101 82,173.5C 85.0359,176.704 88.2026,179.704 91.5,182.5C 95.7438,194.884 104.411,200.051 117.5,198C 120.703,194.629 124.036,191.462 127.5,188.5C 127.5,190.167 127.5,191.833 127.5,193.5C 121.723,194.28 118.723,197.613 118.5,203.5C 117.575,204.562 116.575,204.562 115.5,203.5C 114.502,203.413 113.335,203.08 112,202.5C 111.692,203.308 111.192,203.975 110.5,204.5C 104.437,203.101 99.77,199.767 96.5,194.5C 95.3044,194.846 95.3044,195.346 96.5,196C 95.365,196.749 94.365,196.583 93.5,195.5C 92.3595,194.575 92.3595,193.741 93.5,193C 92.2341,192.691 91.0674,192.191 90,191.5C 87.5969,186.732 85.2635,182.399 83,178.5C 80.6023,178.042 78.9356,176.708 78,174.5C 76.9887,175.337 75.8221,175.67 74.5,175.5C 73.7784,175.082 73.2784,174.416 73,173.5C 70.1978,164.095 73.3644,158.095 82.5,155.5C 80.3265,141.687 85.9932,135.353 99.5,136.5C 104.663,134.817 109.996,134.15 115.5,134.5C 115.351,135.552 115.517,136.552 116,137.5C 116.333,137.167 116.667,136.833 117,136.5C 118.067,137.191 119.234,137.691 120.5,138C 121.305,139.972 122.639,141.472 124.5,142.5C 125.195,145.28 126.195,147.947 127.5,150.5C 129.998,152.11 130.665,154.11 129.5,156.5 Z"/></g>

<!-- cornea right -->
<g><path style="opacity:1" fill="#21090e" d="M 341.5,159.5 C 343.175,179.993 333.841,189.159 313.5,187C 311.047,186.041 308.714,184.874 306.5,183.5C 299.405,175.706 297.571,166.706 301,156.5C 308.255,143.955 318.422,140.788 331.5,147C 335.694,150.598 339.028,154.765 341.5,159.5 Z"/></g>

<!-- pupil; right -->
<g><path class="eye_color" style="opacity:1" fill="" d="M 316.5,151.5 C 326.808,151.61 329.975,156.277 326,165.5C 320.162,170.041 315.495,169.041 312,162.5C 310.776,157.626 312.276,153.959 316.5,151.5 Z"/></g>

<!-- character border -->
<g><path style="opacity:1" fill="#23090c" d="M 329.5,83.5 C 332.278,83.8057 334.778,84.8057 337,86.5C 338.366,86.2935 339.699,85.9602 341,85.5C 343.563,88.5328 346.73,90.6995 350.5,92C 351.337,93.0113 351.67,94.1779 351.5,95.5C 352.93,95.4208 354.264,95.7542 355.5,96.5C 356.701,98.9095 358.367,100.909 360.5,102.5C 362.457,105.009 363.124,107.676 362.5,110.5C 364.771,114.612 367.271,118.612 370,122.5C 371.705,123.763 373.372,124.097 375,123.5C 377.105,126.107 377.938,129.107 377.5,132.5C 378.675,132.281 379.675,132.614 380.5,133.5C 381.462,136.941 382.628,140.274 384,143.5C 384.383,142.944 384.883,142.611 385.5,142.5C 395.899,179.714 390.566,214.38 369.5,246.5C 367.897,245.323 366.564,245.489 365.5,247C 365.833,247.333 366.167,247.667 366.5,248C 365.552,248.483 364.552,248.649 363.5,248.5C 364.21,251.86 362.876,253.693 359.5,254C 358.143,257.933 355.976,259.1 353,257.5C 351.654,259.342 349.821,260.342 347.5,260.5C 358.885,250.059 367.552,237.726 373.5,223.5C 373.833,223.5 374.167,223.5 374.5,223.5C 380.245,213.853 383.245,203.187 383.5,191.5C 383.857,178.765 383.19,166.098 381.5,153.5C 381.506,148.363 380.673,143.363 379,138.5C 377.933,136.308 376.433,134.642 374.5,133.5C 370.769,125.047 365.769,117.38 359.5,110.5C 358.581,107.911 356.914,105.911 354.5,104.5C 349.666,96.9913 343.333,91.3246 335.5,87.5C 333.147,86.6597 331.147,85.3264 329.5,83.5 Z"/></g>

<!-- cornea left -->
<g><path style="opacity:1" fill="#21080e" d="M 214.5,145.5 C 218.903,149.415 222.403,154.081 225,159.5C 227.188,179.979 218.021,189.145 197.5,187C 187.209,182.537 182.542,174.704 183.5,163.5C 187.679,146.91 198.012,140.91 214.5,145.5 Z"/></g>

<!-- pupil left -->
<g><path class="eye_color" style="opacity:1" fill="" d="M 200.5,151.5 C 210.863,151.656 214.03,156.323 210,165.5C 199.342,170.828 194.675,167.494 196,155.5C 197.397,153.93 198.897,152.596 200.5,151.5 Z"/></g>

<!-- hand -->
<g><path style="opacity:1" fill="#fad8a0" d="M 119.5,147.5 C 120.86,149.046 121.86,150.88 122.5,153C 115.73,158.412 112.063,165.579 111.5,174.5C 107.608,176.062 104.275,178.395 101.5,181.5C 99.9436,180.453 98.2769,179.786 96.5,179.5C 96.6567,180.873 96.49,182.207 96,183.5C 94.8932,182.288 94.3932,182.621 94.5,184.5C 93.7777,183.449 92.7777,182.782 91.5,182.5C 88.2026,179.704 85.0359,176.704 82,173.5C 78.016,168.101 79.016,164.101 85,161.5C 89.0677,163.561 92.5677,166.395 95.5,170C 99.3254,170.836 100.825,169.336 100,165.5C 95.8906,161.39 92.5573,156.723 90,151.5C 88.8704,146.647 90.7038,144.147 95.5,144C 99.9493,149.063 103.783,154.563 107,160.5C 110.159,162.171 112.325,161.337 113.5,158C 111.412,152.991 108.912,148.158 106,143.5C 106.147,138.704 108.647,136.87 113.5,138C 116.147,140.801 118.147,143.968 119.5,147.5 Z"/></g>

<!--  -->
<g><path style="opacity:1" fill="#fce5a6" d="M 119.5,147.5 C 118.814,157.117 115.98,157.784 111,149.5C 110.498,146.487 109.998,143.487 109.5,140.5C 111.167,140.5 112.833,140.5 114.5,140.5C 114.608,142.783 115.441,144.783 117,146.5C 117.671,147.252 118.504,147.586 119.5,147.5 Z"/></g>

<!-- left eye border -->
<g><path style="opacity:1" fill="#e7c39d" d="M 214.5,145.5 C 216.258,145.877 217.925,146.544 219.5,147.5C 226.96,155.397 229.46,164.73 227,175.5C 224.816,178.442 222.816,181.442 221,184.5C 218.993,185.669 216.827,186.335 214.5,186.5C 214.5,187.5 214.5,188.5 214.5,189.5C 208.752,189.209 203.085,189.209 197.5,189.5C 196.06,188.048 194.394,187.048 192.5,186.5C 191.185,185.524 189.852,184.524 188.5,183.5C 186.308,180.475 184.308,177.475 182.5,174.5C 182.185,170.629 182.518,166.962 183.5,163.5C 182.542,174.704 187.209,182.537 197.5,187C 218.021,189.145 227.188,179.979 225,159.5C 222.403,154.081 218.903,149.415 214.5,145.5 Z"/></g>

<!-- hand -->
<g><path style="opacity:1" fill="#fdd695" d="M 94.5,184.5 C 94.3932,182.621 94.8932,182.288 96,183.5C 96.49,182.207 96.6567,180.873 96.5,179.5C 98.2769,179.786 99.9436,180.453 101.5,181.5C 104.275,178.395 107.608,176.062 111.5,174.5C 119.187,177.663 122.353,174.996 121,166.5C 121.377,165.058 122.21,164.058 123.5,163.5C 125.25,162.258 126.917,160.758 128.5,159C 131.23,158.272 133.897,158.438 136.5,159.5C 138.096,166.406 137.596,173.073 135,179.5C 133.066,182.688 130.232,184.188 126.5,184C 116.29,201.435 105.623,201.602 94.5,184.5 Z"/></g>


<!--  -->
<g><path style="opacity:1" fill="#f2cda0" d="M 341.5,159.5 C 342.496,159.414 343.329,159.748 344,160.5C 344.667,165.167 344.667,169.833 344,174.5C 342.129,175.997 341.129,177.997 341,180.5C 338.691,182.73 336.524,185.063 334.5,187.5C 333.624,188.251 332.624,188.751 331.5,189C 325.833,189.333 320.167,189.667 314.5,190C 314,190.5 313.5,191 313,191.5C 310.248,189.254 308.082,186.588 306.5,183.5C 308.714,184.874 311.047,186.041 313.5,187C 333.841,189.159 343.175,179.993 341.5,159.5 Z"/></g>

<!-- mouth border -->
<g><path  style="opacity:1" fill="#23090b" d="M 273.5,220.5 C 272.391,220.557 271.391,220.89 270.5,221.5C 257.111,223.639 246.777,218.973 239.5,207.5C 237.864,201.62 236.864,195.62 236.5,189.5C 236.667,187.167 236.833,184.833 237,182.5C 237.5,182 238,181.5 238.5,181C 254.5,180.333 270.5,180.333 286.5,181C 287,181.5 287.5,182 288,182.5C 290.1,198.061 285.267,210.728 273.5,220.5 Z"/></g>


<!-- face -->
<g><path class="body_color" style="opacity:1" fill="#fccf91" d="M 188.5,120.5 C 187.795,124.962 187.295,129.295 187,133.5C 186.164,131.158 184.83,129.158 183,127.5C 180.263,129.452 178.096,131.952 176.5,135C 179.559,139.001 181.559,143.501 182.5,148.5C 184.291,146.587 186.291,144.92 188.5,143.5C 188.833,144 189.167,144.5 189.5,145C 188.419,146.371 187.585,147.871 187,149.5C 185.155,150.05 183.655,151.05 182.5,152.5C 181.476,159.846 181.476,167.179 182.5,174.5C 184.308,177.475 186.308,180.475 188.5,183.5C 189.852,184.524 191.185,185.524 192.5,186.5C 192.953,187.458 193.619,188.292 194.5,189C 193.692,189.308 193.025,189.808 192.5,190.5C 193.993,191.141 194.993,192.141 195.5,193.5C 194.391,193.443 193.391,193.11 192.5,192.5C 192.167,192.5 191.833,192.5 191.5,192.5C 172.282,189.558 163.449,197.892 165,217.5C 171.948,230.117 182.114,233.617 195.5,228C 203.263,221.878 205.929,214.045 203.5,204.5C 205.426,209.06 206.593,214.06 207,219.5C 207.75,218.874 208.584,218.374 209.5,218C 214.198,217.649 218.864,217.149 223.5,216.5C 223.215,214.712 223.548,213.045 224.5,211.5C 226.918,210.543 229.084,209.209 231,207.5C 234.659,211.493 238.326,215.493 242,219.5C 242.368,218.09 243.201,217.09 244.5,216.5C 252.361,223.6 261.027,225.267 270.5,221.5C 271.391,220.89 272.391,220.557 273.5,220.5C 276.785,220.731 279.285,219.397 281,216.5C 285.191,212.794 287.858,208.127 289,202.5C 289.708,201.619 290.542,200.953 291.5,200.5C 292.473,199.209 293.473,199.209 294.5,200.5C 295.167,197.5 295.833,194.5 296.5,191.5C 296.087,194.369 296.587,197.369 298,200.5C 299.011,201.337 300.178,201.67 301.5,201.5C 301.335,198.15 301.502,194.817 302,191.5C 303.363,189.216 304.863,189.049 306.5,191C 305.299,191.903 304.465,193.069 304,194.5C 303.333,199.167 303.333,203.833 304,208.5C 306.381,209.435 308.881,209.768 311.5,209.5C 311.357,211.262 311.691,212.929 312.5,214.5C 314.216,214.997 315.883,215.331 317.5,215.5C 318.328,211.204 318.828,206.871 319,202.5C 319.383,203.056 319.883,203.389 320.5,203.5C 318.513,210.687 319.513,217.354 323.5,223.5C 323.389,224.117 323.056,224.617 322.5,225C 323.204,226.571 324.537,228.238 326.5,230C 324.542,231.579 322.542,231.412 320.5,229.5C 319.548,227.955 319.215,226.288 319.5,224.5C 315.588,223.956 313.255,225.623 312.5,229.5C 312.167,231 311.833,232.5 311.5,234C 311.629,235.981 312.296,237.647 313.5,239C 311.165,241.303 311.165,243.803 313.5,246.5C 312.184,247.807 311.184,249.307 310.5,251C 306.326,252.795 302.326,252.295 298.5,249.5C 294.898,250.077 291.232,250.077 287.5,249.5C 286.753,246.247 286.753,242.914 287.5,239.5C 284.579,239.146 282.246,240.146 280.5,242.5C 279.614,241.675 279.281,240.675 279.5,239.5C 277.801,239.34 276.134,239.506 274.5,240C 273.5,242.333 272.5,244.667 271.5,247C 264.548,248.131 257.881,247.298 251.5,244.5C 249.995,243.158 249.328,241.492 249.5,239.5C 252.898,239.82 256.232,239.487 259.5,238.5C 257.33,236.667 255.33,234.667 253.5,232.5C 246.925,230.065 243.592,232.399 243.5,239.5C 240.102,239.82 236.768,239.487 233.5,238.5C 229.597,230.542 223.597,228.209 215.5,231.5C 215.5,232.5 215.5,233.5 215.5,234.5C 213.325,234.682 211.325,235.349 209.5,236.5C 207.971,236.471 206.804,235.804 206,234.5C 202.537,236.46 198.704,237.46 194.5,237.5C 191.167,236.833 187.833,236.167 184.5,235.5C 180.602,235.564 177.102,235.897 174,236.5C 174.706,240.634 176.039,244.634 178,248.5C 182.667,250.5 186,253.833 188,258.5C 190.816,259.799 192.982,261.799 194.5,264.5C 184.903,259.238 177.237,251.905 171.5,242.5C 172.376,242.631 173.043,242.298 173.5,241.5C 171.002,237.692 169.002,233.692 167.5,229.5C 166.012,224.201 163.845,219.201 161,214.5C 157.636,201.717 156.636,188.717 158,175.5C 158.823,169.861 160.49,164.528 163,159.5C 163.497,156.854 163.664,154.187 163.5,151.5C 164.083,148.053 165.416,145.053 167.5,142.5C 170.427,138.233 173.76,134.233 177.5,130.5C 180.563,126.434 184.229,123.101 188.5,120.5 Z"/></g>

<!-- face shade -->
<g><path class="body_color" style="opacity:1" fill="#f0d1a7" d="M 163.5,151.5 C 163.664,154.187 163.497,156.854 163,159.5C 160.49,164.528 158.823,169.861 158,175.5C 156.636,188.717 157.636,201.717 161,214.5C 163.845,219.201 166.012,224.201 167.5,229.5C 163.111,222.66 159.611,215.327 157,207.5C 156.333,196.167 156.333,184.833 157,173.5C 157.692,165.602 159.859,158.269 163.5,151.5 Z"/></g>

<!-- hand shade -->
<g><path style="opacity:1" fill="#e5c49d" d="M 129.5,156.5 C 131.5,156.5 133.5,156.5 135.5,156.5C 137.144,157.316 138.31,158.65 139,160.5C 139.719,166.973 139.053,173.306 137,179.5C 133.938,182.732 130.771,185.732 127.5,188.5C 124.036,191.462 120.703,194.629 117.5,198C 104.411,200.051 95.7438,194.884 91.5,182.5C 92.7777,182.782 93.7777,183.449 94.5,184.5C 105.623,201.602 116.29,201.435 126.5,184C 130.232,184.188 133.066,182.688 135,179.5C 137.596,173.073 138.096,166.406 136.5,159.5C 133.897,158.438 131.23,158.272 128.5,159C 126.917,160.758 125.25,162.258 123.5,163.5C 124.787,160.547 126.787,158.214 129.5,156.5 Z"/></g>

<!-- material -->
<g><path style="opacity:1" fill="#3f3338" d="M 124.5,217.5 C 123.833,217.833 123.167,218.167 122.5,218.5C 120.89,214.9 118.89,211.566 116.5,208.5C 123.242,202.254 129.908,195.754 136.5,189C 138.217,187.441 140.217,186.608 142.5,186.5C 143.016,191.229 143.016,195.896 142.5,200.5C 136.468,206.174 130.468,211.84 124.5,217.5 Z"/></g>

<!-- mouth shade -->
<g><path style="opacity:1" fill="#eccaa3" d="M 291.5,200.5 C 290.542,200.953 289.708,201.619 289,202.5C 287.858,208.127 285.191,212.794 281,216.5C 279.285,219.397 276.785,220.731 273.5,220.5C 285.267,210.728 290.1,198.061 288,182.5C 287.5,182 287,181.5 286.5,181C 270.5,180.333 254.5,180.333 238.5,181C 238,181.5 237.5,182 237,182.5C 236.833,184.833 236.667,187.167 236.5,189.5C 236.864,195.62 237.864,201.62 239.5,207.5C 238.069,206.097 236.902,204.431 236,202.5C 233.59,194.412 234.09,186.579 237.5,179C 254.173,179.572 270.84,179.572 287.5,179C 288.304,180.771 289.471,182.271 291,183.5C 291.499,189.157 291.666,194.824 291.5,200.5 Z"/></g>

<!-- face strip -->
<g><path  style="opacity:1" fill="#e35531" d="M 375.5,167.5 C 376.325,171.647 376.825,175.981 377,180.5C 378,182.167 379,183.833 380,185.5C 380.232,184.263 380.732,183.263 381.5,182.5C 381.121,191.469 379.621,200.135 377,208.5C 375.817,207.269 374.651,207.269 373.5,208.5C 374.76,212.498 374.76,216.498 373.5,220.5C 370.6,219.046 369.267,220.046 369.5,223.5C 366.344,223.471 364.678,221.804 364.5,218.5C 367.091,214.236 368.091,209.569 367.5,204.5C 367.993,202.194 368.326,199.861 368.5,197.5C 369.167,192.319 369.833,186.985 370.5,181.5C 371.89,183.203 373.39,183.87 375,183.5C 375.499,178.177 375.666,172.844 375.5,167.5 Z"/></g>

<!--  -->
<g><path style="opacity:1" fill="#330607" d="M 243.5,187.5 C 243.5,187.833 243.5,188.167 243.5,188.5C 242.886,193.032 243.886,197.032 246.5,200.5C 246.5,200.833 246.5,201.167 246.5,201.5C 253.866,216.129 263.7,218.129 276,207.5C 278.576,203.525 280.076,199.192 280.5,194.5C 281.468,192.393 281.802,190.059 281.5,187.5C 282.432,195.643 280.599,203.31 276,210.5C 271.91,213.879 267.243,215.879 262,216.5C 256.567,214.529 251.4,212.196 246.5,209.5C 247,205.836 245.833,202.836 243,200.5C 242.186,195.98 242.353,191.646 243.5,187.5 Z"/></g>

<!-- tongue -->
<g><path class="mouth_color" style="opacity:1" fill="#f97a6b" d="M 278.5,196.5 C 277.339,200.349 275.673,204.015 273.5,207.5C 270.206,209.865 266.706,211.865 263,213.5C 259.676,212.389 256.51,210.889 253.5,209C 252.009,206.903 251.009,204.57 250.5,202C 249.207,201.51 247.873,201.343 246.5,201.5C 246.5,201.167 246.5,200.833 246.5,200.5C 249.861,198.153 253.528,196.319 257.5,195C 264.554,194.619 271.554,195.119 278.5,196.5 Z"/></g>

<!-- mouth  -->
<g><path  style="opacity:1" fill="#d5333e" d="M 243.5,188.5 C 255.833,188.5 268.167,188.5 280.5,188.5C 280.5,190.5 280.5,192.5 280.5,194.5C 279.833,195.167 279.167,195.833 278.5,196.5C 271.554,195.119 264.554,194.619 257.5,195C 253.528,196.319 249.861,198.153 246.5,200.5C 243.886,197.032 242.886,193.032 243.5,188.5 Z"/></g>

<!--  -->
<g><path style="opacity:1" fill="#841e29" d="M 243.5,188.5 C 243.5,188.167 243.5,187.833 243.5,187.5C 256.167,187.5 268.833,187.5 281.5,187.5C 281.802,190.059 281.468,192.393 280.5,194.5C 280.5,192.5 280.5,190.5 280.5,188.5C 268.167,188.5 255.833,188.5 243.5,188.5 Z"/></g>

<!-- dot right -->
<g><path style="opacity:1" fill="#eb4f1b" d="M 351.5,195.5 C 352.167,195.833 352.833,196.167 353.5,196.5C 353.343,197.873 353.51,199.207 354,200.5C 355.829,202.156 357.163,204.156 358,206.5C 358.499,210.486 358.666,214.486 358.5,218.5C 358.107,220.284 357.441,221.95 356.5,223.5C 354.833,224.833 353.167,226.167 351.5,227.5C 341.519,231.452 332.685,229.785 325,222.5C 324.527,220.221 323.527,218.221 322,216.5C 319.968,200.868 326.802,193.034 342.5,193C 345.699,193.401 348.699,194.234 351.5,195.5 Z"/></g>

<!-- dot right sorround -->
<g><path style="opacity:1" fill="#d4612d" d="M 353.5,196.5 C 358.174,199.511 360.507,203.845 360.5,209.5C 360.58,212.781 359.913,215.781 358.5,218.5C 358.666,214.486 358.499,210.486 358,206.5C 357.163,204.156 355.829,202.156 354,200.5C 353.51,199.207 353.343,197.873 353.5,196.5 Z"/></g>

<!-- face strip -->
<g><path style="opacity:1" fill="#cf5039" d="M 374.5,135.5 C 377.442,141.269 379.775,147.269 381.5,153.5C 383.19,166.098 383.857,178.765 383.5,191.5C 381.721,202.426 378.721,213.093 374.5,223.5C 374.167,223.5 373.833,223.5 373.5,223.5C 373.5,222.5 373.5,221.5 373.5,220.5C 374.76,216.498 374.76,212.498 373.5,208.5C 374.651,207.269 375.817,207.269 377,208.5C 379.621,200.135 381.121,191.469 381.5,182.5C 383.314,168.665 380.648,155.999 373.5,144.5C 374.407,141.579 374.74,138.579 374.5,135.5 Z"/></g>

<!-- mouth iner shade -->
<g><path  style="opacity:1" fill="#de7871" d="M 280.5,194.5 C 280.076,199.192 278.576,203.525 276,207.5C 263.7,218.129 253.866,216.129 246.5,201.5C 247.873,201.343 249.207,201.51 250.5,202C 251.009,204.57 252.009,206.903 253.5,209C 256.51,210.889 259.676,212.389 263,213.5C 266.706,211.865 270.206,209.865 273.5,207.5C 275.673,204.015 277.339,200.349 278.5,196.5C 279.167,195.833 279.833,195.167 280.5,194.5 Z"/></g>


<!-- character border -->
<g><path style="opacity:1" fill="#470708" d="M 383.5,191.5 C 383.245,203.187 380.245,213.853 374.5,223.5C 378.721,213.093 381.721,202.426 383.5,191.5 Z"/></g>

<!--  -->
<g><path style="opacity:1" fill="#f3eced" d="M 115.5,208.5 C 115.833,208.5 116.167,208.5 116.5,208.5C 118.89,211.566 120.89,214.9 122.5,218.5C 116.855,217.226 114.522,213.893 115.5,208.5 Z"/></g>

<!-- dot right sorround -->
<g><path style="opacity:1" fill="#d9602c" d="M 351.5,195.5 C 348.699,194.234 345.699,193.401 342.5,193C 326.802,193.034 319.968,200.868 322,216.5C 323.527,218.221 324.527,220.221 325,222.5C 332.685,229.785 341.519,231.452 351.5,227.5C 350.4,228.558 349.066,229.392 347.5,230C 338.055,232.373 330.055,230.206 323.5,223.5C 319.513,217.354 318.513,210.687 320.5,203.5C 326.011,193.036 334.678,189.202 346.5,192C 348.584,192.697 350.251,193.864 351.5,195.5 Z"/></g>

<!-- dot let sorround -->
<g><path style="opacity:1" fill="#df5a27" d="M 191.5,192.5 C 182.779,191.906 175.279,194.572 169,200.5C 168.336,203.353 168.836,206.019 170.5,208.5C 169.844,210.453 169.511,212.453 169.5,214.5C 168.5,214.5 167.5,214.5 166.5,214.5C 166.673,217.179 167.673,219.513 169.5,221.5C 172.994,223.414 176.328,225.581 179.5,228C 185.965,228.84 191.965,227.507 197.5,224C 198.188,221.071 199.188,218.237 200.5,215.5C 201.66,211.541 201.827,207.541 201,203.5C 198.659,199.341 195.825,195.674 192.5,192.5C 193.391,193.11 194.391,193.443 195.5,193.5C 197.461,195.963 199.628,198.297 202,200.5C 202.791,201.745 203.291,203.078 203.5,204.5C 205.929,214.045 203.263,221.878 195.5,228C 182.114,233.617 171.948,230.117 165,217.5C 163.449,197.892 172.282,189.558 191.5,192.5 Z"/></g>

<!-- dot left -->
<g><path style="opacity:1" fill="#eb4e19" d="M 191.5,192.5 C 191.833,192.5 192.167,192.5 192.5,192.5C 195.825,195.674 198.659,199.341 201,203.5C 201.827,207.541 201.66,211.541 200.5,215.5C 199.188,218.237 198.188,221.071 197.5,224C 191.965,227.507 185.965,228.84 179.5,228C 176.328,225.581 172.994,223.414 169.5,221.5C 167.673,219.513 166.673,217.179 166.5,214.5C 167.5,214.5 168.5,214.5 169.5,214.5C 169.511,212.453 169.844,210.453 170.5,208.5C 168.836,206.019 168.336,203.353 169,200.5C 175.279,194.572 182.779,191.906 191.5,192.5 Z"/></g>

<!-- face -->
<g><path class="body_color" style="opacity:1" fill="#fdcd8c" d="M 323.5,223.5 C 330.055,230.206 338.055,232.373 347.5,230C 349.066,229.392 350.4,228.558 351.5,227.5C 353.167,226.167 354.833,224.833 356.5,223.5C 357.552,223.351 358.552,223.517 359.5,224C 356.338,228.004 353.338,232.17 350.5,236.5C 348.172,237.724 345.839,237.724 343.5,236.5C 341.184,238.494 338.518,239.494 335.5,239.5C 335.5,241.167 335.5,242.833 335.5,244.5C 330.291,245.052 325.291,246.386 320.5,248.5C 317.12,252.209 313.786,255.876 310.5,259.5C 308.588,259.512 306.588,259.179 304.5,258.5C 303.614,257.675 303.281,256.675 303.5,255.5C 302.5,255.5 301.5,255.5 300.5,255.5C 299.929,258.477 298.929,261.31 297.5,264C 297.833,264.333 298.167,264.667 298.5,265C 292.354,265.202 286.354,266.202 280.5,268C 279.185,269.395 279.519,270.395 281.5,271C 280.044,271.423 279.544,272.256 280,273.5C 281.388,272.446 282.888,272.28 284.5,273C 283.167,273.667 283.167,274.333 284.5,275C 280.026,276.12 275.693,277.286 271.5,278.5C 258.114,280.161 244.781,279.161 231.5,275.5C 219.554,272.304 207.554,268.971 195.5,265.5C 194.833,265.5 194.5,265.167 194.5,264.5C 192.982,261.799 190.816,259.799 188,258.5C 186,253.833 182.667,250.5 178,248.5C 176.039,244.634 174.706,240.634 174,236.5C 177.102,235.897 180.602,235.564 184.5,235.5C 187.833,236.167 191.167,236.833 194.5,237.5C 198.704,237.46 202.537,236.46 206,234.5C 206.804,235.804 207.971,236.471 209.5,236.5C 211.325,235.349 213.325,234.682 215.5,234.5C 215.5,233.5 215.5,232.5 215.5,231.5C 223.597,228.209 229.597,230.542 233.5,238.5C 236.768,239.487 240.102,239.82 243.5,239.5C 243.592,232.399 246.925,230.065 253.5,232.5C 255.33,234.667 257.33,236.667 259.5,238.5C 256.232,239.487 252.898,239.82 249.5,239.5C 249.328,241.492 249.995,243.158 251.5,244.5C 257.881,247.298 264.548,248.131 271.5,247C 272.5,244.667 273.5,242.333 274.5,240C 276.134,239.506 277.801,239.34 279.5,239.5C 279.281,240.675 279.614,241.675 280.5,242.5C 282.246,240.146 284.579,239.146 287.5,239.5C 286.753,242.914 286.753,246.247 287.5,249.5C 291.232,250.077 294.898,250.077 298.5,249.5C 302.326,252.295 306.326,252.795 310.5,251C 311.184,249.307 312.184,247.807 313.5,246.5C 311.165,243.803 311.165,241.303 313.5,239C 312.296,237.647 311.629,235.981 311.5,234C 311.833,232.5 312.167,231 312.5,229.5C 313.255,225.623 315.588,223.956 319.5,224.5C 319.215,226.288 319.548,227.955 320.5,229.5C 322.542,231.412 324.542,231.579 326.5,230C 324.537,228.238 323.204,226.571 322.5,225C 323.056,224.617 323.389,224.117 323.5,223.5 Z"/></g>

<!-- jacket material -->
<g><path style="opacity:1" fill="#32262b" d="M 156.5,234.5 C 158.19,238.187 157.69,238.854 155,236.5C 155.438,239.06 155.271,241.56 154.5,244C 155.11,245.947 155.943,247.781 157,249.5C 157.667,246.833 158.333,246.833 159,249.5C 159,251.5 159,253.5 159,255.5C 160.851,255.491 162.685,256.324 164.5,258C 163.756,259.039 162.756,259.539 161.5,259.5C 149.396,248.56 138.063,236.726 127.5,224C 127.978,222.697 128.645,221.531 129.5,220.5C 134.293,216.879 138.96,213.046 143.5,209C 144.167,208.333 144.833,208.333 145.5,209C 148.505,217.869 152.172,226.369 156.5,234.5 Z"/></g>

<!-- shade -->
<g><path class="body_color" style="opacity:1" fill="#fdc786" d="M 363.5,159.5 C 365.048,165.38 366.548,171.38 368,177.5C 368.5,184.158 368.666,190.825 368.5,197.5C 368.326,199.861 367.993,202.194 367.5,204.5C 360.704,231.814 344.704,251.98 319.5,265C 310.508,268.825 301.508,272.325 292.5,275.5C 285.549,276.825 278.549,277.825 271.5,278.5C 275.693,277.286 280.026,276.12 284.5,275C 283.167,274.333 283.167,273.667 284.5,273C 282.888,272.28 281.388,272.446 280,273.5C 279.544,272.256 280.044,271.423 281.5,271C 279.519,270.395 279.185,269.395 280.5,268C 286.354,266.202 292.354,265.202 298.5,265C 298.167,264.667 297.833,264.333 297.5,264C 298.929,261.31 299.929,258.477 300.5,255.5C 301.5,255.5 302.5,255.5 303.5,255.5C 303.281,256.675 303.614,257.675 304.5,258.5C 306.588,259.179 308.588,259.512 310.5,259.5C 313.786,255.876 317.12,252.209 320.5,248.5C 325.291,246.386 330.291,245.052 335.5,244.5C 335.5,242.833 335.5,241.167 335.5,239.5C 338.518,239.494 341.184,238.494 343.5,236.5C 345.839,237.724 348.172,237.724 350.5,236.5C 353.338,232.17 356.338,228.004 359.5,224C 358.552,223.517 357.552,223.351 356.5,223.5C 357.441,221.95 358.107,220.284 358.5,218.5C 359.913,215.781 360.58,212.781 360.5,209.5C 361.163,211.042 361.83,212.709 362.5,214.5C 366.686,201.704 367.519,188.704 365,175.5C 364.094,178.121 363.594,177.954 363.5,175C 363.698,169.567 363.698,164.401 363.5,159.5 Z"/></g>

<!-- character border -->
<g><path style="opacity:1" fill="#21070e" d="M 156.5,218.5 C 160.499,227.173 165.499,235.173 171.5,242.5C 177.237,251.905 184.903,259.238 194.5,264.5C 194.5,265.167 194.833,265.5 195.5,265.5C 204.312,272.908 214.312,278.242 225.5,281.5C 228.725,282.807 232.059,283.807 235.5,284.5C 238.642,285.79 241.975,286.79 245.5,287.5C 248.541,288.229 251.541,289.396 254.5,291C 247.122,293.67 239.788,293.17 232.5,289.5C 231.268,290.145 229.935,290.311 228.5,290C 229.056,290.383 229.389,290.883 229.5,291.5C 229.247,295.04 228.581,298.373 227.5,301.5C 226.524,300.185 225.524,298.852 224.5,297.5C 224.709,296.914 225.043,296.414 225.5,296C 224.597,292.771 223.263,289.938 221.5,287.5C 219.94,287.481 218.44,287.148 217,286.5C 215.69,287.13 214.856,288.13 214.5,289.5C 211.208,291.458 208.208,293.791 205.5,296.5C 203.896,297.287 203.229,298.62 203.5,300.5C 202.903,300.735 202.57,301.235 202.5,302C 205.612,305.07 205.946,308.237 203.5,311.5C 200.442,309.043 198.108,306.043 196.5,302.5C 196.591,300.302 195.925,299.969 194.5,301.5C 194.19,300.262 193.69,300.262 193,301.5C 192.362,300.391 191.862,299.225 191.5,298C 192.707,296.7 193.374,295.2 193.5,293.5C 195.199,293.473 196.533,292.806 197.5,291.5C 197.435,291.938 197.601,292.272 198,292.5C 198.377,291.058 199.21,290.058 200.5,289.5C 202.599,287.006 204.932,284.673 207.5,282.5C 205.621,280.515 203.621,279.848 201.5,280.5C 200.833,282.167 200.167,283.833 199.5,285.5C 198.078,285.709 196.745,286.209 195.5,287C 194.884,289.179 193.717,291.012 192,292.5C 191.333,291.833 190.667,291.167 190,290.5C 190.081,288.015 189.914,285.681 189.5,283.5C 190.688,284.684 191.855,284.684 193,283.5C 194.318,280.57 194.985,277.57 195,274.5C 187.768,269.778 180.934,264.445 174.5,258.5C 168.068,250.747 162.068,242.747 156.5,234.5C 152.172,226.369 148.505,217.869 145.5,209C 144.833,208.333 144.167,208.333 143.5,209C 138.96,213.046 134.293,216.879 129.5,220.5C 128.671,219.668 127.838,220.001 127,221.5C 126.641,218.456 125.974,218.122 125,220.5C 124.517,219.552 124.351,218.552 124.5,217.5C 130.468,211.84 136.468,206.174 142.5,200.5C 143.016,195.896 143.016,191.229 142.5,186.5C 140.217,186.608 138.217,187.441 136.5,189C 129.908,195.754 123.242,202.254 116.5,208.5C 116.167,208.5 115.833,208.5 115.5,208.5C 113.043,206.999 113.043,205.332 115.5,203.5C 116.575,204.562 117.575,204.562 118.5,203.5C 118.723,197.613 121.723,194.28 127.5,193.5C 127.5,191.833 127.5,190.167 127.5,188.5C 130.771,185.732 133.938,182.732 137,179.5C 139.053,173.306 139.719,166.973 139,160.5C 138.31,158.65 137.144,157.316 135.5,156.5C 135.461,155.417 135.127,154.417 134.5,153.5C 135.167,153.167 135.833,152.833 136.5,152.5C 141.023,153.937 144.023,156.937 145.5,161.5C 144.631,166.124 144.631,170.791 145.5,175.5C 146.5,175.5 147.5,175.5 148.5,175.5C 148.397,182.529 148.23,189.529 148,196.5C 149.874,203.54 151.874,210.54 154,217.5C 154.671,218.252 155.504,218.586 156.5,218.5 Z"/></g>

<!-- jacket material -->
<g><path style="opacity:1" fill="#2b1d22" d="M 156.5,234.5 C 162.068,242.747 168.068,250.747 174.5,258.5C 180.934,264.445 187.768,269.778 195,274.5C 194.985,277.57 194.318,280.57 193,283.5C 191.855,284.684 190.688,284.684 189.5,283.5C 182.344,277.519 175.011,271.685 167.5,266C 165.322,263.989 163.322,261.823 161.5,259.5C 162.756,259.539 163.756,259.039 164.5,258C 162.685,256.324 160.851,255.491 159,255.5C 159,253.5 159,251.5 159,249.5C 158.333,246.833 157.667,246.833 157,249.5C 155.943,247.781 155.11,245.947 154.5,244C 155.271,241.56 155.438,239.06 155,236.5C 157.69,238.854 158.19,238.187 156.5,234.5 Z"/></g>

<!-- face strip -->
<g><path style="opacity:1" fill="#df915d" d="M 195.5,265.5 C 207.554,268.971 219.554,272.304 231.5,275.5C 227.774,275.177 224.107,275.511 220.5,276.5C 222.188,278.188 223.854,279.854 225.5,281.5C 214.312,278.242 204.312,272.908 195.5,265.5 Z"/></g>


<!-- face strip  -->
<g><path style="opacity:1" fill="#e76d40" d="M 367.5,204.5 C 368.091,209.569 367.091,214.236 364.5,218.5C 364.678,221.804 366.344,223.471 369.5,223.5C 369.267,220.046 370.6,219.046 373.5,220.5C 373.5,221.5 373.5,222.5 373.5,223.5C 367.552,237.726 358.885,250.059 347.5,260.5C 342.214,263.788 337.214,267.454 332.5,271.5C 328.22,273.64 323.886,275.807 319.5,278C 315.693,279.881 311.693,281.047 307.5,281.5C 302.167,282.5 296.833,283.5 291.5,284.5C 291.056,282.887 290.056,281.72 288.5,281C 290.21,279.349 291.544,277.516 292.5,275.5C 301.508,272.325 310.508,268.825 319.5,265C 344.704,251.98 360.704,231.814 367.5,204.5 Z"/></g>

<!-- face strip -->
<g><path style="opacity:1" fill="#ea7c48" d="M 231.5,275.5 C 244.781,279.161 258.114,280.161 271.5,278.5C 278.549,277.825 285.549,276.825 292.5,275.5C 291.544,277.516 290.21,279.349 288.5,281C 290.056,281.72 291.056,282.887 291.5,284.5C 284.069,286.906 276.402,287.906 268.5,287.5C 257.404,287.237 246.404,286.237 235.5,284.5C 232.059,283.807 228.725,282.807 225.5,281.5C 223.854,279.854 222.188,278.188 220.5,276.5C 224.107,275.511 227.774,275.177 231.5,275.5 Z"/></g>

<!--  jacket material -->
<g><path style="opacity:1" fill="#5b4c49" d="M 201.5,280.5 C 203.621,279.848 205.621,280.515 207.5,282.5C 204.932,284.673 202.599,287.006 200.5,289.5C 201.16,287.184 201.827,284.851 202.5,282.5C 202.457,281.584 202.124,280.917 201.5,280.5 Z"/></g>

<!-- shade  -->
<g><path class="body_color" style="opacity:1" fill="#ce7050" d="M 307.5,281.5 C 287.566,289.662 266.899,291.662 245.5,287.5C 241.975,286.79 238.642,285.79 235.5,284.5C 246.404,286.237 257.404,287.237 268.5,287.5C 276.402,287.906 284.069,286.906 291.5,284.5C 296.833,283.5 302.167,282.5 307.5,281.5 Z"/></g>

<!--  character border -->
<g><path style="opacity:1" fill="#330606" d="M 332.5,271.5 C 332.586,272.496 332.252,273.329 331.5,274C 322.874,278.638 313.874,282.304 304.5,285C 303.643,285.689 302.977,286.522 302.5,287.5C 286.901,289.577 271.234,290.911 255.5,291.5C 253.712,292.283 252.712,293.616 252.5,295.5C 251.5,295.5 250.5,295.5 249.5,295.5C 244.484,294.608 239.484,293.608 234.5,292.5C 233.432,291.566 232.099,291.232 230.5,291.5C 230.167,291.5 229.833,291.5 229.5,291.5C 229.389,290.883 229.056,290.383 228.5,290C 229.935,290.311 231.268,290.145 232.5,289.5C 239.788,293.17 247.122,293.67 254.5,291C 251.541,289.396 248.541,288.229 245.5,287.5C 266.899,291.662 287.566,289.662 307.5,281.5C 311.693,281.047 315.693,279.881 319.5,278C 323.886,275.807 328.22,273.64 332.5,271.5 Z"/></g>


<!--  -->
<g><path style="opacity:1" fill="#a99a99" d="M 201.5,280.5 C 202.124,280.917 202.457,281.584 202.5,282.5C 201.827,284.851 201.16,287.184 200.5,289.5C 199.21,290.058 198.377,291.058 198,292.5C 197.601,292.272 197.435,291.938 197.5,291.5C 197.971,289.421 198.637,287.421 199.5,285.5C 200.167,283.833 200.833,282.167 201.5,280.5 Z"/></g>

<!-- charachter border -->
<g><path style="opacity:1" fill="#1f080e" d="M 369.5,246.5 C 365.274,253.398 359.941,259.398 353.5,264.5C 358.615,269.567 364.615,273.4 371.5,276C 387.692,292.556 387.358,308.723 370.5,324.5C 356.667,332.441 344.167,330.774 333,319.5C 330.901,315.769 329.734,311.769 329.5,307.5C 328.209,307.737 327.209,307.404 326.5,306.5C 327.376,306.631 328.043,306.298 328.5,305.5C 327.014,303.698 326.014,301.698 325.5,299.5C 327.167,299.5 328.833,299.5 330.5,299.5C 332.693,294.109 335.193,288.776 338,283.5C 338.995,280.874 339.328,278.207 339,275.5C 321.32,286.591 302.153,293.591 281.5,296.5C 280.479,297.002 280.312,297.668 281,298.5C 283.41,301.065 285.576,303.732 287.5,306.5C 286.849,307.091 286.182,307.757 285.5,308.5C 284.033,308.277 282.533,307.944 281,307.5C 280.088,310.202 278.254,311.869 275.5,312.5C 275.216,309.223 275.549,306.057 276.5,303C 275.956,302.283 275.289,301.783 274.5,301.5C 273.386,300.115 272.386,298.615 271.5,297C 267.514,296.501 263.514,296.334 259.5,296.5C 258.989,305.158 258.656,313.825 258.5,322.5C 257.176,323.85 256.176,323.683 255.5,322C 254.591,320.211 254.424,318.377 255,316.5C 256.367,317.524 257.2,317.024 257.5,315C 256.576,313.189 255.743,313.355 255,315.5C 254.667,315.167 254.333,314.833 254,314.5C 253.817,311.635 253.317,308.969 252.5,306.5C 252.5,302.833 252.5,299.167 252.5,295.5C 252.712,293.616 253.712,292.283 255.5,291.5C 271.234,290.911 286.901,289.577 302.5,287.5C 302.977,286.522 303.643,285.689 304.5,285C 313.874,282.304 322.874,278.638 331.5,274C 332.252,273.329 332.586,272.496 332.5,271.5C 337.214,267.454 342.214,263.788 347.5,260.5C 349.821,260.342 351.654,259.342 353,257.5C 355.976,259.1 358.143,257.933 359.5,254C 362.876,253.693 364.21,251.86 363.5,248.5C 364.552,248.649 365.552,248.483 366.5,248C 366.167,247.667 365.833,247.333 365.5,247C 366.564,245.489 367.897,245.323 369.5,246.5 Z"/></g>

<!--  -->
<g><path style="opacity:1" fill="#4e3636" d="M 346.5,279.5 C 346.458,281.849 347.625,283.182 350,283.5C 351.174,282.456 352.341,281.456 353.5,280.5C 352.78,285.992 351.447,291.325 349.5,296.5C 348.026,297.436 347.026,298.77 346.5,300.5C 345.188,302.479 343.521,304.145 341.5,305.5C 339.336,304.586 337.336,303.419 335.5,302C 337.333,299.5 339.167,297 341,294.5C 342.896,289.402 344.73,284.402 346.5,279.5 Z"/></g>

<!-- hand  -->
<g><path style="opacity:1" fill="#e9c096" d="M 368.5,315.5 C 368.5,314.833 368.5,314.167 368.5,313.5C 374.321,305.481 374.987,296.981 370.5,288C 368.892,287.342 367.725,287.842 367,289.5C 365.872,287.655 365.372,285.655 365.5,283.5C 364.178,283.33 363.011,283.663 362,284.5C 361.882,290.472 360.715,296.139 358.5,301.5C 357.041,301.433 355.708,301.766 354.5,302.5C 358.286,294.97 360.786,286.97 362,278.5C 374.619,286.023 378.286,296.69 373,310.5C 372.004,312.66 370.504,314.327 368.5,315.5 Z"/></g>

<!-- jacket matrial hand brace -->
<g><path style="opacity:1" fill="#86594b" d="M 353.5,280.5 C 352.341,281.456 351.174,282.456 350,283.5C 347.625,283.182 346.458,281.849 346.5,279.5C 346.28,276.6 346.946,273.933 348.5,271.5C 350.323,272.747 352.323,273.414 354.5,273.5C 354.552,275.903 354.219,278.236 353.5,280.5 Z"/></g>

<!--  -->
<g><path style="opacity:1" fill="#270908" d="M 345.5,320.5 C 350.448,321.559 355.448,321.726 360.5,321C 363.756,319.884 366.422,318.051 368.5,315.5C 370.504,314.327 372.004,312.66 373,310.5C 378.286,296.69 374.619,286.023 362,278.5C 360.786,286.97 358.286,294.97 354.5,302.5C 351.369,307.131 347.202,310.465 342,312.5C 339.267,310.572 338.1,311.239 338.5,314.5C 336.327,309.539 337.827,307.872 343,309.5C 345.122,308.78 345.622,307.613 344.5,306C 346.421,305.64 348.088,304.806 349.5,303.5C 349.121,301.787 348.121,300.787 346.5,300.5C 347.026,298.77 348.026,297.436 349.5,296.5C 350.79,297.058 351.623,298.058 352,299.5C 357.573,292.908 360.573,285.241 361,276.5C 363.351,277.714 365.851,278.548 368.5,279C 370.283,280.739 371.95,282.572 373.5,284.5C 378.715,293.679 379.215,303.012 375,312.5C 371.681,314.482 369.514,317.315 368.5,321C 365.168,321.249 362.001,322.082 359,323.5C 354.081,323.249 349.581,322.249 345.5,320.5 Z"/></g>

<!-- hand -->
<g><path style="opacity:1" fill="#fdcf8d" d="M 368.5,313.5 C 365.731,314.437 363.064,315.604 360.5,317C 357.167,317.667 353.833,317.667 350.5,317C 349.483,315.951 349.316,314.784 350,313.5C 352.201,310.879 354.035,308.046 355.5,305C 354.748,304.329 354.414,303.496 354.5,302.5C 355.708,301.766 357.041,301.433 358.5,301.5C 360.715,296.139 361.882,290.472 362,284.5C 363.011,283.663 364.178,283.33 365.5,283.5C 365.372,285.655 365.872,287.655 367,289.5C 367.725,287.842 368.892,287.342 370.5,288C 374.987,296.981 374.321,305.481 368.5,313.5 Z"/></g>

<!-- neck -->
<g><path style="opacity:1" fill="#d36346" d="M 234.5,292.5 C 239.484,293.608 244.484,294.608 249.5,295.5C 250.768,296.787 250.435,297.787 248.5,298.5C 241.824,301.047 236.824,299.214 233.5,293C 233.728,292.601 234.062,292.435 234.5,292.5 Z"/></g>

<!-- tshirt shade -->
<g><path style="opacity:1" fill="#964c3d" d="M 230.5,291.5 C 232.099,291.232 233.432,291.566 234.5,292.5C 234.062,292.435 233.728,292.601 233.5,293C 236.824,299.214 241.824,301.047 248.5,298.5C 250.435,297.787 250.768,296.787 249.5,295.5C 250.5,295.5 251.5,295.5 252.5,295.5C 252.5,299.167 252.5,302.833 252.5,306.5C 252.167,306.5 251.833,306.5 251.5,306.5C 251.5,304.5 251.5,302.5 251.5,300.5C 241.629,303.723 234.629,300.723 230.5,291.5 Z"/></g>

<!-- Jacket material -->
<g><path style="opacity:1" fill="#32272d" d="M 325.5,299.5 C 321.796,297.909 317.796,297.076 313.5,297C 306.833,296.333 300.167,296.333 293.5,297C 292.426,297.739 291.759,298.739 291.5,300C 297.287,309.027 300.454,318.861 301,329.5C 295.705,333.648 289.872,336.648 283.5,338.5C 284.173,329.721 280.34,327.055 272,330.5C 270.596,330.491 269.43,329.991 268.5,329C 275.01,323.656 281.01,317.823 286.5,311.5C 287.309,309.929 287.643,308.262 287.5,306.5C 285.576,303.732 283.41,301.065 281,298.5C 280.312,297.668 280.479,297.002 281.5,296.5C 302.153,293.591 321.32,286.591 339,275.5C 339.328,278.207 338.995,280.874 338,283.5C 335.193,288.776 332.693,294.109 330.5,299.5C 328.833,299.5 327.167,299.5 325.5,299.5 Z"/></g>


<!-- tshirt shade -->
<g><path style="opacity:1" fill="#dec7b4" d="M 229.5,291.5 C 229.833,291.5 230.167,291.5 230.5,291.5C 234.629,300.723 241.629,303.723 251.5,300.5C 251.5,302.5 251.5,304.5 251.5,306.5C 251.5,307.833 251.5,309.167 251.5,310.5C 242.909,311.48 235.409,309.147 229,303.5C 228.722,304.416 228.222,305.082 227.5,305.5C 227.5,304.167 227.5,302.833 227.5,301.5C 228.581,298.373 229.247,295.04 229.5,291.5 Z"/></g>


<!-- top left material jacket -->
<g><path style="opacity:1" fill="#322a33" d="M 221.5,287.5 C 221.476,298.991 220.309,310.324 218,321.5C 212.946,314.62 208.113,307.62 203.5,300.5C 203.229,298.62 203.896,297.287 205.5,296.5C 205.639,303.834 209.306,306.167 216.5,303.5C 219.312,298.142 218.646,293.476 214.5,289.5C 214.856,288.13 215.69,287.13 217,286.5C 218.44,287.148 219.94,287.481 221.5,287.5 Z"/></g>

<!--  -->
<g><path style="opacity:1" fill="#faf8f2" d="M 251.5,310.5 C 251.338,320.594 251.838,330.594 253,340.5C 248.599,341.467 244.099,341.8 239.5,341.5C 234.212,340.546 229.045,338.879 224,336.5C 225.242,326.223 226.409,315.89 227.5,305.5C 228.222,305.082 228.722,304.416 229,303.5C 235.409,309.147 242.909,311.48 251.5,310.5 Z"/></g>

<!-- top right button -->
<g><path style="opacity:1" fill="#efce78" d="M 264.5,309.5 C 264.5,308.167 264.5,306.833 264.5,305.5C 266.559,302.851 269.225,302.018 272.5,303C 275.963,308.868 274.296,311.868 267.5,312C 266.627,310.955 265.627,310.122 264.5,309.5 Z"/></g>

<!-- jacket material -->
<g><path style="opacity:1" fill="#32262f" d="M 274.5,301.5 C 269.579,299.218 266.246,300.552 264.5,305.5C 264.5,306.833 264.5,308.167 264.5,309.5C 264.511,311.017 265.177,312.184 266.5,313C 268.81,313.497 271.143,313.663 273.5,313.5C 269.134,318.533 264.467,323.2 259.5,327.5C 258.548,325.955 258.215,324.288 258.5,322.5C 258.656,313.825 258.989,305.158 259.5,296.5C 263.514,296.334 267.514,296.501 271.5,297C 272.386,298.615 273.386,300.115 274.5,301.5 Z"/></g>

<!--  hand shade right-->
<g><path style="opacity:1" fill="#eaa36b" d="M 354.5,302.5 C 354.414,303.496 354.748,304.329 355.5,305C 354.035,308.046 352.201,310.879 350,313.5C 349.316,314.784 349.483,315.951 350.5,317C 353.833,317.667 357.167,317.667 360.5,317C 363.064,315.604 365.731,314.437 368.5,313.5C 368.5,314.167 368.5,314.833 368.5,315.5C 366.422,318.051 363.756,319.884 360.5,321C 355.448,321.726 350.448,321.559 345.5,320.5C 343.192,318.529 340.858,316.529 338.5,314.5C 338.1,311.239 339.267,310.572 342,312.5C 347.202,310.465 351.369,307.131 354.5,302.5 Z"/></g>

<!-- top right button sorround -->
<g><path style="opacity:1" fill="#3e2b1d" d="M 274.5,301.5 C 275.289,301.783 275.956,302.283 276.5,303C 275.549,306.057 275.216,309.223 275.5,312.5C 274.833,312.833 274.167,313.167 273.5,313.5C 271.143,313.663 268.81,313.497 266.5,313C 265.177,312.184 264.511,311.017 264.5,309.5C 265.627,310.122 266.627,310.955 267.5,312C 274.296,311.868 275.963,308.868 272.5,303C 269.225,302.018 266.559,302.851 264.5,305.5C 266.246,300.552 269.579,299.218 274.5,301.5 Z"/></g>

<!-- can remove this -->
<g><path style="opacity:1" fill="#fcf8eb" d="M 109.5,216.5 C 122.878,231.052 136.545,245.552 150.5,260C 163.08,271.917 176.246,283.084 190,293.5C 186.702,304.341 183.536,315.341 180.5,326.5C 180.719,327.938 181.219,329.271 182,330.5C 187.562,335.404 193.062,340.238 198.5,345C 195.512,351.811 192.179,358.311 188.5,364.5C 136.538,329.261 110.204,279.928 109.5,216.5 Z"/></g>

<!--  can remove this -->
<g><path style="opacity:1" fill="#fcf8eb" d="M 426.5,218.5 C 428.71,286.089 400.71,336.923 342.5,371C 313.086,387.075 281.753,392.408 248.5,387C 241.134,385.939 233.8,384.772 226.5,383.5C 231.132,377.089 236.132,370.922 241.5,365C 247.186,364.689 252.853,364.189 258.5,363.5C 266.116,366.637 273.783,369.803 281.5,373C 295.875,376.044 307.541,371.878 316.5,360.5C 320.907,359.875 325.241,359.042 329.5,358C 333.163,353.464 333.33,348.631 330,343.5C 325.241,334.24 318.074,327.574 308.5,323.5C 306.626,317.88 304.96,312.214 303.5,306.5C 307.373,304.57 311.706,303.903 316.5,304.5C 319.865,305.04 323.198,305.706 326.5,306.5C 327.209,307.404 328.209,307.737 329.5,307.5C 329.734,311.769 330.901,315.769 333,319.5C 344.167,330.774 356.667,332.441 370.5,324.5C 371.265,324.923 372.098,325.257 373,325.5C 374.371,324.419 375.871,323.585 377.5,323C 379.07,320.138 380.737,317.305 382.5,314.5C 384.758,313.201 387.092,312.201 389.5,311.5C 390.364,306.067 390.364,300.734 389.5,295.5C 390.833,295.5 392.167,295.5 393.5,295.5C 393.5,292.833 393.5,290.167 393.5,287.5C 395.5,287.5 397.5,287.5 399.5,287.5C 399.5,280.167 399.5,272.833 399.5,265.5C 406.167,265.5 409.5,262.167 409.5,255.5C 411.527,255.662 413.527,255.495 415.5,255C 412.918,251.958 412.918,248.958 415.5,246C 414.328,245.581 413.328,244.915 412.5,244C 414.891,243.309 414.891,242.309 412.5,241C 413.777,238.534 413.777,236.034 412.5,233.5C 411.087,230.339 409.42,227.339 407.5,224.5C 408.415,223.672 409.081,222.672 409.5,221.5C 406.783,217.116 403.116,213.782 398.5,211.5C 397.833,212.167 397.167,212.833 396.5,213.5C 392.094,209.072 393.094,207.072 399.5,207.5C 398.645,195.84 399.978,184.507 403.5,173.5C 401.881,170.358 401.215,167.025 401.5,163.5C 400.167,163.5 398.833,163.5 397.5,163.5C 397.762,164.978 397.429,166.311 396.5,167.5C 395.808,166.975 395.308,166.308 395,165.5C 395.164,160.845 395.164,156.179 395,151.5C 393.786,149.951 392.286,148.785 390.5,148C 391.554,146.612 391.72,145.112 391,143.5C 390.159,139.509 388.659,136.176 386.5,133.5C 389.044,132.063 389.044,130.563 386.5,129C 389.658,128.762 391.658,130.262 392.5,133.5C 391.425,136.438 391.259,139.438 392,142.5C 395.287,143.116 398.121,144.616 400.5,147C 399.051,150.608 399.217,154.108 401,157.5C 401.333,155.5 401.667,153.5 402,151.5C 402.333,152.833 402.667,154.167 403,155.5C 407.185,156.914 409.518,160.248 410,165.5C 410.718,164.549 411.551,164.383 412.5,165C 411.483,166.049 411.316,167.216 412,168.5C 416.773,175.45 418.939,182.95 418.5,191C 419.687,193.774 421.02,196.441 422.5,199C 421.5,201.091 422.167,202.757 424.5,204C 423.073,209.532 423.24,215.032 425,220.5C 425.278,219.584 425.778,218.918 426.5,218.5 Z"/></g>

<!-- charcheter border left  -->
<g><path style="opacity:1" fill="#200c11" d="M 115.5,203.5 C 113.043,205.332 113.043,206.999 115.5,208.5C 114.522,213.893 116.855,217.226 122.5,218.5C 123.167,218.167 123.833,217.833 124.5,217.5C 124.351,218.552 124.517,219.552 125,220.5C 125.974,218.122 126.641,218.456 127,221.5C 127.838,220.001 128.671,219.668 129.5,220.5C 128.645,221.531 127.978,222.697 127.5,224C 138.063,236.726 149.396,248.56 161.5,259.5C 163.322,261.823 165.322,263.989 167.5,266C 175.011,271.685 182.344,277.519 189.5,283.5C 189.914,285.681 190.081,288.015 190,290.5C 190.667,291.167 191.333,291.833 192,292.5C 193.717,291.012 194.884,289.179 195.5,287C 196.745,286.209 198.078,285.709 199.5,285.5C 198.637,287.421 197.971,289.421 197.5,291.5C 196.533,292.806 195.199,293.473 193.5,293.5C 193.374,295.2 192.707,296.7 191.5,298C 191.862,299.225 192.362,300.391 193,301.5C 193.69,300.262 194.19,300.262 194.5,301.5C 192.819,309.253 190.819,316.92 188.5,324.5C 188.752,326.073 189.418,327.406 190.5,328.5C 192.052,331.112 194.386,332.445 197.5,332.5C 198.688,327.569 197.022,324.236 192.5,322.5C 192.5,322.167 192.5,321.833 192.5,321.5C 194.782,322.39 197.115,322.556 199.5,322C 200.548,318.678 201.881,315.178 203.5,311.5C 205.946,308.237 205.612,305.07 202.5,302C 202.57,301.235 202.903,300.735 203.5,300.5C 208.113,307.62 212.946,314.62 218,321.5C 220.309,310.324 221.476,298.991 221.5,287.5C 223.263,289.938 224.597,292.771 225.5,296C 225.043,296.414 224.709,296.914 224.5,297.5C 225.524,298.852 226.524,300.185 227.5,301.5C 227.5,302.833 227.5,304.167 227.5,305.5C 226.409,315.89 225.242,326.223 224,336.5C 229.045,338.879 234.212,340.546 239.5,341.5C 240.261,342.391 241.261,343.058 242.5,343.5C 245.282,343.063 247.949,343.063 250.5,343.5C 252.753,342.747 254.587,341.414 256,339.5C 256.21,336.766 257.044,334.266 258.5,332C 258.167,331.667 257.833,331.333 257.5,331C 259.047,329.151 260.881,327.651 263,326.5C 263.14,328.256 262.64,329.922 261.5,331.5C 261.957,332.298 262.624,332.631 263.5,332.5C 264.275,337.797 264.608,343.13 264.5,348.5C 264.719,349.675 264.386,350.675 263.5,351.5C 261.889,350.68 261.222,349.346 261.5,347.5C 247.855,349.265 234.522,347.932 221.5,343.5C 219.471,344.551 217.637,345.885 216,347.5C 214.186,347.409 212.353,347.075 210.5,346.5C 208.883,345.962 207.216,345.629 205.5,345.5C 201.152,354.206 197.318,363.206 194,372.5C 193.833,373.333 193.667,374.167 193.5,375C 193.684,376.376 194.351,377.209 195.5,377.5C 198.513,381.009 202.013,384.009 206,386.5C 206.494,388.134 206.66,389.801 206.5,391.5C 204.801,391.66 203.134,391.494 201.5,391C 195.483,385.658 188.483,382.492 180.5,381.5C 180.238,382.978 180.571,384.311 181.5,385.5C 187.481,390.932 194.148,395.265 201.5,398.5C 202.938,398.281 204.271,397.781 205.5,397C 208.365,393.308 211.365,389.808 214.5,386.5C 214.577,387.75 215.244,388.583 216.5,389C 214.043,390.512 214.043,391.846 216.5,393C 212.398,394.768 210.398,397.934 210.5,402.5C 209.657,404.173 208.324,405.34 206.5,406C 203.5,406.667 200.5,406.667 197.5,406C 189.715,401.691 182.548,396.524 176,390.5C 172.511,385.795 172.677,381.295 176.5,377C 179.618,375.628 182.784,374.462 186,373.5C 187.145,370.568 187.978,367.568 188.5,364.5C 192.179,358.311 195.512,351.811 198.5,345C 193.062,340.238 187.562,335.404 182,330.5C 181.219,329.271 180.719,327.938 180.5,326.5C 183.536,315.341 186.702,304.341 190,293.5C 176.246,283.084 163.08,271.917 150.5,260C 136.545,245.552 122.878,231.052 109.5,216.5C 107.68,212.919 107.013,209.252 107.5,205.5C 103.17,204.337 99.1698,202.503 95.5,200C 88.6645,191.667 81.6645,183.5 74.5,175.5C 75.8221,175.67 76.9887,175.337 78,174.5C 78.9356,176.708 80.6023,178.042 83,178.5C 85.2635,182.399 87.5969,186.732 90,191.5C 91.0674,192.191 92.2341,192.691 93.5,193C 92.3595,193.741 92.3595,194.575 93.5,195.5C 94.365,196.583 95.365,196.749 96.5,196C 95.3044,195.346 95.3044,194.846 96.5,194.5C 99.77,199.767 104.437,203.101 110.5,204.5C 111.192,203.975 111.692,203.308 112,202.5C 113.335,203.08 114.502,203.413 115.5,203.5 Z"/></g>

<!--  -->
<g><path style="opacity:1" fill="#b57656" d="M 207.5,330.5 C 209.988,332.388 212.988,333.055 216.5,332.5C 216.938,340.612 214.105,342.279 208,337.5C 207.79,335.942 207.29,334.609 206.5,333.5C 206.263,332.209 206.596,331.209 207.5,330.5 Z"/></g>

<!-- left jacket space - making this material -->
<g><path style="opacity:1" fill="#352c2f" d="M 207.5,330.5 C 206.596,331.209 206.263,332.209 206.5,333.5C 206.368,336.797 204.702,338.463 201.5,338.5C 202.294,331.03 203.794,323.697 206,316.5C 207.659,317.817 208.826,319.483 209.5,321.5C 208.358,324.399 207.692,327.399 207.5,330.5 Z"/></g>

<!--  -->
<g><path style="opacity:1" fill="#efa278" d="M 192.5,322.5 C 197.022,324.236 198.688,327.569 197.5,332.5C 194.386,332.445 192.052,331.112 190.5,328.5C 191.458,326.698 192.125,324.698 192.5,322.5 Z"/></g>

<!-- jacket left material color -->
<g><path style="opacity:1" fill="#352c2f" d="M 196.5,302.5 C 198.108,306.043 200.442,309.043 203.5,311.5C 201.881,315.178 200.548,318.678 199.5,322C 197.115,322.556 194.782,322.39 192.5,321.5C 194.599,315.338 195.932,309.005 196.5,302.5 Z"/></g>

<!--  -->
<g><path style="opacity:1" fill="#edded9" d="M 196.5,302.5 C 195.932,309.005 194.599,315.338 192.5,321.5C 192.5,321.833 192.5,322.167 192.5,322.5C 192.125,324.698 191.458,326.698 190.5,328.5C 189.418,327.406 188.752,326.073 188.5,324.5C 190.819,316.92 192.819,309.253 194.5,301.5C 195.925,299.969 196.591,300.302 196.5,302.5 Z"/></g>

<!-- top left jacket shade -->
<g><path style="opacity:1" fill="#44372f" d="M 214.5,289.5 C 218.646,293.476 219.312,298.142 216.5,303.5C 209.306,306.167 205.639,303.834 205.5,296.5C 208.208,293.791 211.208,291.458 214.5,289.5 Z"/></g>

<!-- top left jacket button -->
<g><path style="opacity:1" fill="#f5dd93" d="M 209.5,295.5 C 216.004,295.138 217.671,297.638 214.5,303C 207.745,303.756 206.078,301.256 209.5,295.5 Z"/></g>

 <!--  -->
<g><path style="opacity:1" fill="#ede3df" d="M 267.5,350.5 C 266.5,349.833 265.5,349.167 264.5,348.5C 264.608,343.13 264.275,337.797 263.5,332.5C 265.774,331.048 267.274,331.715 268,334.5C 269.081,339.47 269.414,344.47 269,349.5C 268.617,350.056 268.117,350.389 267.5,350.5 Z"/></g>

 <!-- pants -->
<g><path style="opacity:1" fill="#21ACC6" d="M 214.5,386.5 C 211.365,389.808 208.365,393.308 205.5,397C 204.271,397.781 202.938,398.281 201.5,398.5C 194.148,395.265 187.481,390.932 181.5,385.5C 180.571,384.311 180.238,382.978 180.5,381.5C 188.483,382.492 195.483,385.658 201.5,391C 203.134,391.494 204.801,391.66 206.5,391.5C 206.66,389.801 206.494,388.134 206,386.5C 202.013,384.009 198.513,381.009 195.5,377.5C 200.169,367.325 205.502,357.491 211.5,348C 210.944,347.617 210.611,347.117 210.5,346.5C 212.353,347.075 214.186,347.409 216,347.5C 217.637,345.885 219.471,344.551 221.5,343.5C 234.522,347.932 247.855,349.265 261.5,347.5C 261.222,349.346 261.889,350.68 263.5,351.5C 264.386,350.675 264.719,349.675 264.5,348.5C 265.5,349.167 266.5,349.833 267.5,350.5C 267.62,351.586 268.287,352.253 269.5,352.5C 273.554,351.897 277.554,351.064 281.5,350C 284.76,344.319 289.76,341.652 296.5,342C 301.328,338.994 305.995,335.827 310.5,332.5C 317.279,337.296 322.279,343.629 325.5,351.5C 321.599,350.932 317.599,350.932 313.5,351.5C 308.888,361.811 300.888,366.478 289.5,365.5C 280.881,364.904 272.881,362.404 265.5,358C 256.833,357.333 248.167,357.333 239.5,358C 229.891,366.438 221.558,375.938 214.5,386.5 Z"/></g>

<g><path style="opacity:1" fill="#f1edee" d="M 210.5,346.5 C 210.611,347.117 210.944,347.617 211.5,348C 205.502,357.491 200.169,367.325 195.5,377.5C 194.351,377.209 193.684,376.376 193.5,375C 193.667,374.167 193.833,373.333 194,372.5C 197.318,363.206 201.152,354.206 205.5,345.5C 207.216,345.629 208.883,345.962 210.5,346.5 Z"/></g>

<!--  character border -->
<g><path style="opacity:1" fill="#1c090f" d="M 325.5,299.5 C 326.014,301.698 327.014,303.698 328.5,305.5C 328.043,306.298 327.376,306.631 326.5,306.5C 323.198,305.706 319.865,305.04 316.5,304.5C 312.03,303.514 307.363,303.181 302.5,303.5C 302.263,304.791 302.596,305.791 303.5,306.5C 304.96,312.214 306.626,317.88 308.5,323.5C 318.074,327.574 325.241,334.24 330,343.5C 333.33,348.631 333.163,353.464 329.5,358C 325.241,359.042 320.907,359.875 316.5,360.5C 307.541,371.878 295.875,376.044 281.5,373C 273.783,369.803 266.116,366.637 258.5,363.5C 252.853,364.189 247.186,364.689 241.5,365C 236.132,370.922 231.132,377.089 226.5,383.5C 221.137,389.858 215.804,396.192 210.5,402.5C 210.398,397.934 212.398,394.768 216.5,393C 214.043,391.846 214.043,390.512 216.5,389C 215.244,388.583 214.577,387.75 214.5,386.5C 221.558,375.938 229.891,366.438 239.5,358C 248.167,357.333 256.833,357.333 265.5,358C 272.881,362.404 280.881,364.904 289.5,365.5C 300.888,366.478 308.888,361.811 313.5,351.5C 317.599,350.932 321.599,350.932 325.5,351.5C 322.279,343.629 317.279,337.296 310.5,332.5C 305.995,335.827 301.328,338.994 296.5,342C 289.76,341.652 284.76,344.319 281.5,350C 277.554,351.064 273.554,351.897 269.5,352.5C 268.287,352.253 267.62,351.586 267.5,350.5C 268.117,350.389 268.617,350.056 269,349.5C 269.414,344.47 269.081,339.47 268,334.5C 267.274,331.715 265.774,331.048 263.5,332.5C 262.624,332.631 261.957,332.298 261.5,331.5C 262.64,329.922 263.14,328.256 263,326.5C 260.881,327.651 259.047,329.151 257.5,331C 257.833,331.333 258.167,331.667 258.5,332C 257.044,334.266 256.21,336.766 256,339.5C 254.587,341.414 252.753,342.747 250.5,343.5C 247.949,343.063 245.282,343.063 242.5,343.5C 241.261,343.058 240.261,342.391 239.5,341.5C 244.099,341.8 248.599,341.467 253,340.5C 251.838,330.594 251.338,320.594 251.5,310.5C 251.5,309.167 251.5,307.833 251.5,306.5C 251.833,306.5 252.167,306.5 252.5,306.5C 253.317,308.969 253.817,311.635 254,314.5C 254.333,314.833 254.667,315.167 255,315.5C 255.743,313.355 256.576,313.189 257.5,315C 257.2,317.024 256.367,317.524 255,316.5C 254.424,318.377 254.591,320.211 255.5,322C 256.176,323.683 257.176,323.85 258.5,322.5C 258.215,324.288 258.548,325.955 259.5,327.5C 264.467,323.2 269.134,318.533 273.5,313.5C 274.167,313.167 274.833,312.833 275.5,312.5C 278.254,311.869 280.088,310.202 281,307.5C 282.533,307.944 284.033,308.277 285.5,308.5C 286.182,307.757 286.849,307.091 287.5,306.5C 287.643,308.262 287.309,309.929 286.5,311.5C 281.01,317.823 275.01,323.656 268.5,329C 269.43,329.991 270.596,330.491 272,330.5C 280.34,327.055 284.173,329.721 283.5,338.5C 289.872,336.648 295.705,333.648 301,329.5C 300.454,318.861 297.287,309.027 291.5,300C 291.759,298.739 292.426,297.739 293.5,297C 300.167,296.333 306.833,296.333 313.5,297C 317.796,297.076 321.796,297.909 325.5,299.5 Z"/></g>

 <!-- jacket pants -->
<g><path style="opacity:1" fill="#ede9ef" d="M 275.5,342.5 C 276.833,342.5 278.167,342.5 279.5,342.5C 280.244,345.95 278.91,347.616 275.5,347.5C 275.5,345.833 275.5,344.167 275.5,342.5 Z"/></g>

<g><path style="opacity:1" fill="#f6f1f3" d="M 273.5,335.5 C 274.833,335.5 276.167,335.5 277.5,335.5C 277.5,337.167 277.5,338.833 277.5,340.5C 274.09,340.616 272.756,338.95 273.5,335.5 Z"/></g>

 <!--  -->
<g><path style="opacity:1" fill="#bbb0ad" d="M 316.5,304.5 C 311.706,303.903 307.373,304.57 303.5,306.5C 302.596,305.791 302.263,304.791 302.5,303.5C 307.363,303.181 312.03,303.514 316.5,304.5 Z"/></g>


</svg>
